<svg id="fb8bf2d7-d124-4aac-baa6-8d3fbaf57d59" data-name="left-side" xmlns="http://www.w3.org/2000/svg" xmlns:xlink="http://www.w3.org/1999/xlink" viewBox="0 0 1089.7 1089.7"><defs><clipPath id="b9090793-3afe-4bb1-960b-2a5b5914e34d" transform="translate(135.6 516.47)"><circle cx="384.76" cy="123.12" r="251.23" style="fill:none"/></clipPath></defs><title>circle-lined2.</title><g style="clip-path:url(#b9090793-3afe-4bb1-960b-2a5b5914e34d)"><line x1="191.86" y1="8.34" x2="191.86" y2="1024.39" style="fill:none;stroke:#ff7062;stroke-miterlimit:10;stroke-width:2px"/><line x1="175.64" y1="28.15" x2="175.64" y2="1024.39" style="fill:none;stroke:#ff7062;stroke-miterlimit:10;stroke-width:2px"/><line x1="159.41" y1="19.14" x2="159.41" y2="1024.39" style="fill:none;stroke:#ff7062;stroke-miterlimit:10;stroke-width:2px"/><line x1="240.54" y1="13.74" x2="240.54" y2="1029.79" style="fill:none;stroke:#ff7062;stroke-miterlimit:10;stroke-width:2px"/><line x1="224.31" y1="33.56" x2="224.31" y2="1029.79" style="fill:none;stroke:#ff7062;stroke-miterlimit:10;stroke-width:2px"/><line x1="208.09" y1="24.55" x2="208.09" y2="1029.79" style="fill:none;stroke:#ff7062;stroke-miterlimit:10;stroke-width:2px"/><line x1="289.21" y1="20.95" x2="289.21" y2="1037" style="fill:none;stroke:#ff7062;stroke-miterlimit:10;stroke-width:2px"/><line x1="272.98" y1="40.76" x2="272.98" y2="1037" style="fill:none;stroke:#ff7062;stroke-miterlimit:10;stroke-width:2px"/><line x1="256.76" y1="31.76" x2="256.76" y2="1037" style="fill:none;stroke:#ff7062;stroke-miterlimit:10;stroke-width:2px"/><line x1="337.88" y1="26.35" x2="337.88" y2="1042.4" style="fill:none;stroke:#ff7062;stroke-miterlimit:10;stroke-width:2px"/><line x1="321.66" y1="46.17" x2="321.66" y2="1042.4" style="fill:none;stroke:#ff7062;stroke-miterlimit:10;stroke-width:2px"/><line x1="305.43" y1="37.16" x2="305.43" y2="1042.4" style="fill:none;stroke:#ff7062;stroke-miterlimit:10;stroke-width:2px"/><line x1="386.55" y1="27.25" x2="386.55" y2="1043.31" style="fill:none;stroke:#ff7062;stroke-miterlimit:10;stroke-width:2px"/><line x1="370.33" y1="47.07" x2="370.33" y2="1043.31" style="fill:none;stroke:#ff7062;stroke-miterlimit:10;stroke-width:2px"/><line x1="354.11" y1="38.06" x2="354.11" y2="1043.31" style="fill:none;stroke:#ff7062;stroke-miterlimit:10;stroke-width:2px"/><line x1="435.23" y1="32.66" x2="435.23" y2="1048.71" style="fill:none;stroke:#ff7062;stroke-miterlimit:10;stroke-width:2px"/><line x1="419" y1="52.48" x2="419" y2="1048.71" style="fill:none;stroke:#ff7062;stroke-miterlimit:10;stroke-width:2px"/><line x1="402.78" y1="43.47" x2="402.78" y2="1048.71" style="fill:none;stroke:#ff7062;stroke-miterlimit:10;stroke-width:2px"/><line x1="483.9" y1="39.87" x2="483.9" y2="1055.92" style="fill:none;stroke:#ff7062;stroke-miterlimit:10;stroke-width:2px"/><line x1="467.67" y1="59.68" x2="467.68" y2="1055.92" style="fill:none;stroke:#ff7062;stroke-miterlimit:10;stroke-width:2px"/><line x1="451.45" y1="50.68" x2="451.45" y2="1055.92" style="fill:none;stroke:#ff7062;stroke-miterlimit:10;stroke-width:2px"/><line x1="532.57" y1="45.27" x2="532.57" y2="1061.32" style="fill:none;stroke:#ff7062;stroke-miterlimit:10;stroke-width:2px"/><line x1="516.35" y1="65.09" x2="516.35" y2="1061.32" style="fill:none;stroke:#ff7062;stroke-miterlimit:10;stroke-width:2px"/><line x1="500.12" y1="56.08" x2="500.12" y2="1061.32" style="fill:none;stroke:#ff7062;stroke-miterlimit:10;stroke-width:2px"/><line x1="581.24" y1="36.72" x2="581.24" y2="1052.77" style="fill:none;stroke:#ff7062;stroke-miterlimit:10;stroke-width:2px"/><line x1="565.02" y1="56.53" x2="565.02" y2="1052.77" style="fill:none;stroke:#ff7062;stroke-miterlimit:10;stroke-width:2px"/><line x1="548.8" y1="47.52" x2="548.8" y2="1052.77" style="fill:none;stroke:#ff7062;stroke-miterlimit:10;stroke-width:2px"/><line x1="629.92" y1="42.12" x2="629.92" y2="1058.17" style="fill:none;stroke:#ff7062;stroke-miterlimit:10;stroke-width:2px"/><line x1="613.69" y1="61.94" x2="613.69" y2="1058.17" style="fill:none;stroke:#ff7062;stroke-miterlimit:10;stroke-width:2px"/><line x1="597.47" y1="52.93" x2="597.47" y2="1058.17" style="fill:none;stroke:#ff7062;stroke-miterlimit:10;stroke-width:2px"/><line x1="678.59" y1="49.33" x2="678.59" y2="1065.38" style="fill:none;stroke:#ff7062;stroke-miterlimit:10;stroke-width:2px"/><line x1="662.37" y1="69.14" x2="662.37" y2="1065.38" style="fill:none;stroke:#ff7062;stroke-miterlimit:10;stroke-width:2px"/><line x1="646.14" y1="60.14" x2="646.14" y2="1065.38" style="fill:none;stroke:#ff7062;stroke-miterlimit:10;stroke-width:2px"/><line x1="727.26" y1="54.73" x2="727.26" y2="1070.78" style="fill:none;stroke:#ff7062;stroke-miterlimit:10;stroke-width:2px"/><line x1="711.04" y1="74.55" x2="711.04" y2="1070.78" style="fill:none;stroke:#ff7062;stroke-miterlimit:10;stroke-width:2px"/><line x1="694.81" y1="65.54" x2="694.81" y2="1070.78" style="fill:none;stroke:#ff7062;stroke-miterlimit:10;stroke-width:2px"/><line x1="775.94" y1="55.64" x2="775.94" y2="1071.69" style="fill:none;stroke:#ff7062;stroke-miterlimit:10;stroke-width:2px"/><line x1="759.71" y1="75.45" x2="759.71" y2="1071.69" style="fill:none;stroke:#ff7062;stroke-miterlimit:10;stroke-width:2px"/><line x1="743.49" y1="66.44" x2="743.49" y2="1071.69" style="fill:none;stroke:#ff7062;stroke-miterlimit:10;stroke-width:2px"/><line x1="824.61" y1="61.04" x2="824.61" y2="1077.09" style="fill:none;stroke:#ff7062;stroke-miterlimit:10;stroke-width:2px"/><line x1="808.38" y1="80.86" x2="808.38" y2="1077.09" style="fill:none;stroke:#ff7062;stroke-miterlimit:10;stroke-width:2px"/><line x1="792.16" y1="71.85" x2="792.16" y2="1077.09" style="fill:none;stroke:#ff7062;stroke-miterlimit:10;stroke-width:2px"/><line x1="873.28" y1="68.25" x2="873.28" y2="1084.3" style="fill:none;stroke:#ff7062;stroke-miterlimit:10;stroke-width:2px"/><line x1="857.06" y1="88.06" x2="857.06" y2="1084.3" style="fill:none;stroke:#ff7062;stroke-miterlimit:10;stroke-width:2px"/><line x1="840.83" y1="79.06" x2="840.83" y2="1084.3" style="fill:none;stroke:#ff7062;stroke-miterlimit:10;stroke-width:2px"/><line x1="921.95" y1="73.65" x2="921.95" y2="1089.7" style="fill:none;stroke:#ff7062;stroke-miterlimit:10;stroke-width:2px"/><line x1="905.73" y1="93.47" x2="905.73" y2="1089.7" style="fill:none;stroke:#ff7062;stroke-miterlimit:10;stroke-width:2px"/><line x1="889.51" y1="84.46" x2="889.51" y2="1089.7" style="fill:none;stroke:#ff7062;stroke-miterlimit:10;stroke-width:2px"/><line x1="1081.37" y1="200.2" x2="65.32" y2="200.2" style="fill:none;stroke:#ff7062;stroke-miterlimit:10;stroke-width:2px"/><line x1="1061.55" y1="183.97" x2="65.32" y2="183.97" style="fill:none;stroke:#ff7062;stroke-miterlimit:10;stroke-width:2px"/><line x1="1070.56" y1="167.75" x2="65.32" y2="167.75" style="fill:none;stroke:#ff7062;stroke-miterlimit:10;stroke-width:2px"/><line x1="1075.96" y1="248.87" x2="59.91" y2="248.87" style="fill:none;stroke:#ff7062;stroke-miterlimit:10;stroke-width:2px"/><line x1="1056.15" y1="232.65" x2="59.91" y2="232.65" style="fill:none;stroke:#ff7062;stroke-miterlimit:10;stroke-width:2px"/><line x1="1065.15" y1="216.42" x2="59.91" y2="216.42" style="fill:none;stroke:#ff7062;stroke-miterlimit:10;stroke-width:2px"/><line x1="1068.76" y1="297.54" x2="52.71" y2="297.54" style="fill:none;stroke:#ff7062;stroke-miterlimit:10;stroke-width:2px"/><line x1="1048.94" y1="281.32" x2="52.71" y2="281.32" style="fill:none;stroke:#ff7062;stroke-miterlimit:10;stroke-width:2px"/><line x1="1057.95" y1="265.09" x2="52.71" y2="265.1" style="fill:none;stroke:#ff7062;stroke-miterlimit:10;stroke-width:2px"/><line x1="1063.35" y1="346.22" x2="47.3" y2="346.22" style="fill:none;stroke:#ff7062;stroke-miterlimit:10;stroke-width:2px"/><line x1="1043.53" y1="329.99" x2="47.3" y2="329.99" style="fill:none;stroke:#ff7062;stroke-miterlimit:10;stroke-width:2px"/><line x1="1052.54" y1="313.77" x2="47.3" y2="313.77" style="fill:none;stroke:#ff7062;stroke-miterlimit:10;stroke-width:2px"/><line x1="1062.45" y1="394.89" x2="46.4" y2="394.89" style="fill:none;stroke:#ff7062;stroke-miterlimit:10;stroke-width:2px"/><line x1="1042.63" y1="378.66" x2="46.4" y2="378.66" style="fill:none;stroke:#ff7062;stroke-miterlimit:10;stroke-width:2px"/><line x1="1051.64" y1="362.44" x2="46.4" y2="362.44" style="fill:none;stroke:#ff7062;stroke-miterlimit:10;stroke-width:2px"/><line x1="1057.04" y1="443.56" x2="40.99" y2="443.56" style="fill:none;stroke:#ff7062;stroke-miterlimit:10;stroke-width:2px"/><line x1="1037.23" y1="427.34" x2="40.99" y2="427.34" style="fill:none;stroke:#ff7062;stroke-miterlimit:10;stroke-width:2px"/><line x1="1046.24" y1="411.11" x2="40.99" y2="411.11" style="fill:none;stroke:#ff7062;stroke-miterlimit:10;stroke-width:2px"/><line x1="1049.84" y1="492.23" x2="33.79" y2="492.23" style="fill:none;stroke:#ff7062;stroke-miterlimit:10;stroke-width:2px"/><line x1="1030.02" y1="476.01" x2="33.79" y2="476.01" style="fill:none;stroke:#ff7062;stroke-miterlimit:10;stroke-width:2px"/><line x1="1039.03" y1="459.79" x2="33.79" y2="459.79" style="fill:none;stroke:#ff7062;stroke-miterlimit:10;stroke-width:2px"/><line x1="1044.43" y1="540.91" x2="28.38" y2="540.91" style="fill:none;stroke:#ff7062;stroke-miterlimit:10;stroke-width:2px"/><line x1="1024.62" y1="524.68" x2="28.38" y2="524.68" style="fill:none;stroke:#ff7062;stroke-miterlimit:10;stroke-width:2px"/><line x1="1033.62" y1="508.46" x2="28.38" y2="508.46" style="fill:none;stroke:#ff7062;stroke-miterlimit:10;stroke-width:2px"/><line x1="1052.99" y1="589.58" x2="36.94" y2="589.58" style="fill:none;stroke:#ff7062;stroke-miterlimit:10;stroke-width:2px"/><line x1="1033.17" y1="573.36" x2="36.94" y2="573.36" style="fill:none;stroke:#ff7062;stroke-miterlimit:10;stroke-width:2px"/><line x1="1042.18" y1="557.13" x2="36.94" y2="557.13" style="fill:none;stroke:#ff7062;stroke-miterlimit:10;stroke-width:2px"/><line x1="1047.58" y1="638.25" x2="31.53" y2="638.25" style="fill:none;stroke:#ff7062;stroke-miterlimit:10;stroke-width:2px"/><line x1="1027.77" y1="622.03" x2="31.53" y2="622.03" style="fill:none;stroke:#ff7062;stroke-miterlimit:10;stroke-width:2px"/><line x1="1036.77" y1="605.8" x2="31.53" y2="605.8" style="fill:none;stroke:#ff7062;stroke-miterlimit:10;stroke-width:2px"/><line x1="1040.38" y1="686.93" x2="24.32" y2="686.93" style="fill:none;stroke:#ff7062;stroke-miterlimit:10;stroke-width:2px"/><line x1="1020.56" y1="670.7" x2="24.32" y2="670.7" style="fill:none;stroke:#ff7062;stroke-miterlimit:10;stroke-width:2px"/><line x1="1029.57" y1="654.48" x2="24.33" y2="654.48" style="fill:none;stroke:#ff7062;stroke-miterlimit:10;stroke-width:2px"/><line x1="1034.97" y1="735.6" x2="18.92" y2="735.6" style="fill:none;stroke:#ff7062;stroke-miterlimit:10;stroke-width:2px"/><line x1="1015.15" y1="719.37" x2="18.92" y2="719.37" style="fill:none;stroke:#ff7062;stroke-miterlimit:10;stroke-width:2px"/><line x1="1024.16" y1="703.15" x2="18.92" y2="703.15" style="fill:none;stroke:#ff7062;stroke-miterlimit:10;stroke-width:2px"/><line x1="1034.07" y1="784.27" x2="18.02" y2="784.27" style="fill:none;stroke:#ff7062;stroke-miterlimit:10;stroke-width:2px"/><line x1="1014.25" y1="768.05" x2="18.02" y2="768.05" style="fill:none;stroke:#ff7062;stroke-miterlimit:10;stroke-width:2px"/><line x1="1023.26" y1="751.82" x2="18.02" y2="751.82" style="fill:none;stroke:#ff7062;stroke-miterlimit:10;stroke-width:2px"/><line x1="1028.66" y1="832.94" x2="12.61" y2="832.94" style="fill:none;stroke:#ff7062;stroke-miterlimit:10;stroke-width:2px"/><line x1="1008.85" y1="816.72" x2="12.61" y2="816.72" style="fill:none;stroke:#ff7062;stroke-miterlimit:10;stroke-width:2px"/><line x1="1017.85" y1="800.5" x2="12.61" y2="800.5" style="fill:none;stroke:#ff7062;stroke-miterlimit:10;stroke-width:2px"/><line x1="1021.46" y1="881.62" x2="5.41" y2="881.62" style="fill:none;stroke:#ff7062;stroke-miterlimit:10;stroke-width:2px"/><line x1="1001.64" y1="865.39" x2="5.41" y2="865.39" style="fill:none;stroke:#ff7062;stroke-miterlimit:10;stroke-width:2px"/><line x1="1010.65" y1="849.17" x2="5.41" y2="849.17" style="fill:none;stroke:#ff7062;stroke-miterlimit:10;stroke-width:2px"/><line x1="1016.05" y1="930.29" y2="930.29" style="fill:none;stroke:#ff7062;stroke-miterlimit:10;stroke-width:2px"/><line x1="996.23" y1="914.07" y2="914.07" style="fill:none;stroke:#ff7062;stroke-miterlimit:10;stroke-width:2px"/><line x1="1005.24" y1="897.84" y2="897.84" style="fill:none;stroke:#ff7062;stroke-miterlimit:10;stroke-width:2px"/><line x1="200.2" x2="200.2" y2="1016.05" style="fill:none;stroke:#ff7062;stroke-miterlimit:10;stroke-width:2px"/><line x1="183.97" y1="19.82" x2="183.97" y2="1016.05" style="fill:none;stroke:#ff7062;stroke-miterlimit:10;stroke-width:2px"/><line x1="167.75" y1="10.81" x2="167.75" y2="1016.05" style="fill:none;stroke:#ff7062;stroke-miterlimit:10;stroke-width:2px"/><line x1="248.87" y1="5.41" x2="248.87" y2="1021.46" style="fill:none;stroke:#ff7062;stroke-miterlimit:10;stroke-width:2px"/><line x1="232.64" y1="25.22" x2="232.65" y2="1021.46" style="fill:none;stroke:#ff7062;stroke-miterlimit:10;stroke-width:2px"/><line x1="216.42" y1="16.21" x2="216.42" y2="1021.46" style="fill:none;stroke:#ff7062;stroke-miterlimit:10;stroke-width:2px"/><line x1="297.54" y1="12.61" x2="297.54" y2="1028.66" style="fill:none;stroke:#ff7062;stroke-miterlimit:10;stroke-width:2px"/><line x1="281.32" y1="32.43" x2="281.32" y2="1028.66" style="fill:none;stroke:#ff7062;stroke-miterlimit:10;stroke-width:2px"/><line x1="265.09" y1="23.42" x2="265.09" y2="1028.66" style="fill:none;stroke:#ff7062;stroke-miterlimit:10;stroke-width:2px"/><line x1="346.21" y1="18.02" x2="346.22" y2="1034.07" style="fill:none;stroke:#ff7062;stroke-miterlimit:10;stroke-width:2px"/><line x1="329.99" y1="37.83" x2="329.99" y2="1034.07" style="fill:none;stroke:#ff7062;stroke-miterlimit:10;stroke-width:2px"/><line x1="313.77" y1="28.83" x2="313.77" y2="1034.07" style="fill:none;stroke:#ff7062;stroke-miterlimit:10;stroke-width:2px"/><line x1="394.89" y1="18.92" x2="394.89" y2="1034.97" style="fill:none;stroke:#ff7062;stroke-miterlimit:10;stroke-width:2px"/><line x1="378.66" y1="38.74" x2="378.66" y2="1034.97" style="fill:none;stroke:#ff7062;stroke-miterlimit:10;stroke-width:2px"/><line x1="362.44" y1="29.73" x2="362.44" y2="1034.97" style="fill:none;stroke:#ff7062;stroke-miterlimit:10;stroke-width:2px"/><line x1="443.56" y1="24.32" x2="443.56" y2="1040.38" style="fill:none;stroke:#ff7062;stroke-miterlimit:10;stroke-width:2px"/><line x1="427.34" y1="44.14" x2="427.34" y2="1040.38" style="fill:none;stroke:#ff7062;stroke-miterlimit:10;stroke-width:2px"/><line x1="411.11" y1="35.13" x2="411.11" y2="1040.38" style="fill:none;stroke:#ff7062;stroke-miterlimit:10;stroke-width:2px"/><line x1="492.23" y1="31.53" x2="492.23" y2="1047.58" style="fill:none;stroke:#ff7062;stroke-miterlimit:10;stroke-width:2px"/><line x1="476.01" y1="51.35" x2="476.01" y2="1047.58" style="fill:none;stroke:#ff7062;stroke-miterlimit:10;stroke-width:2px"/><line x1="459.78" y1="42.34" x2="459.78" y2="1047.58" style="fill:none;stroke:#ff7062;stroke-miterlimit:10;stroke-width:2px"/><line x1="540.91" y1="36.94" x2="540.91" y2="1052.99" style="fill:none;stroke:#ff7062;stroke-miterlimit:10;stroke-width:2px"/><line x1="524.68" y1="56.75" x2="524.68" y2="1052.99" style="fill:none;stroke:#ff7062;stroke-miterlimit:10;stroke-width:2px"/><line x1="508.46" y1="47.75" x2="508.46" y2="1052.99" style="fill:none;stroke:#ff7062;stroke-miterlimit:10;stroke-width:2px"/><line x1="589.58" y1="28.38" x2="589.58" y2="1044.43" style="fill:none;stroke:#ff7062;stroke-miterlimit:10;stroke-width:2px"/><line x1="573.35" y1="48.2" x2="573.35" y2="1044.43" style="fill:none;stroke:#ff7062;stroke-miterlimit:10;stroke-width:2px"/><line x1="557.13" y1="39.19" x2="557.13" y2="1044.43" style="fill:none;stroke:#ff7062;stroke-miterlimit:10;stroke-width:2px"/><line x1="638.25" y1="33.79" x2="638.25" y2="1049.84" style="fill:none;stroke:#ff7062;stroke-miterlimit:10;stroke-width:2px"/><line x1="622.03" y1="53.6" x2="622.03" y2="1049.84" style="fill:none;stroke:#ff7062;stroke-miterlimit:10;stroke-width:2px"/><line x1="605.8" y1="44.59" x2="605.8" y2="1049.84" style="fill:none;stroke:#ff7062;stroke-miterlimit:10;stroke-width:2px"/><line x1="686.92" y1="40.99" x2="686.92" y2="1057.04" style="fill:none;stroke:#ff7062;stroke-miterlimit:10;stroke-width:2px"/><line x1="670.7" y1="60.81" x2="670.7" y2="1057.04" style="fill:none;stroke:#ff7062;stroke-miterlimit:10;stroke-width:2px"/><line x1="654.48" y1="51.8" x2="654.48" y2="1057.04" style="fill:none;stroke:#ff7062;stroke-miterlimit:10;stroke-width:2px"/><line x1="735.6" y1="46.4" x2="735.6" y2="1062.45" style="fill:none;stroke:#ff7062;stroke-miterlimit:10;stroke-width:2px"/><line x1="719.37" y1="66.21" x2="719.37" y2="1062.45" style="fill:none;stroke:#ff7062;stroke-miterlimit:10;stroke-width:2px"/><line x1="703.15" y1="57.21" x2="703.15" y2="1062.45" style="fill:none;stroke:#ff7062;stroke-miterlimit:10;stroke-width:2px"/><line x1="784.27" y1="47.3" x2="784.27" y2="1063.35" style="fill:none;stroke:#ff7062;stroke-miterlimit:10;stroke-width:2px"/><line x1="768.05" y1="67.12" x2="768.05" y2="1063.35" style="fill:none;stroke:#ff7062;stroke-miterlimit:10;stroke-width:2px"/><line x1="751.82" y1="58.11" x2="751.82" y2="1063.35" style="fill:none;stroke:#ff7062;stroke-miterlimit:10;stroke-width:2px"/><line x1="832.94" y1="52.71" x2="832.94" y2="1068.76" style="fill:none;stroke:#ff7062;stroke-miterlimit:10;stroke-width:2px"/><line x1="816.72" y1="72.52" x2="816.72" y2="1068.76" style="fill:none;stroke:#ff7062;stroke-miterlimit:10;stroke-width:2px"/><line x1="800.49" y1="63.51" x2="800.49" y2="1068.76" style="fill:none;stroke:#ff7062;stroke-miterlimit:10;stroke-width:2px"/><line x1="881.62" y1="59.91" x2="881.62" y2="1075.96" style="fill:none;stroke:#ff7062;stroke-miterlimit:10;stroke-width:2px"/><line x1="865.39" y1="79.73" x2="865.39" y2="1075.96" style="fill:none;stroke:#ff7062;stroke-miterlimit:10;stroke-width:2px"/><line x1="849.17" y1="70.72" x2="849.17" y2="1075.96" style="fill:none;stroke:#ff7062;stroke-miterlimit:10;stroke-width:2px"/><line x1="930.29" y1="65.32" x2="930.29" y2="1081.37" style="fill:none;stroke:#ff7062;stroke-miterlimit:10;stroke-width:2px"/><line x1="914.06" y1="85.13" x2="914.06" y2="1081.37" style="fill:none;stroke:#ff7062;stroke-miterlimit:10;stroke-width:2px"/><line x1="897.84" y1="76.13" x2="897.84" y2="1081.37" style="fill:none;stroke:#ff7062;stroke-miterlimit:10;stroke-width:2px"/><line x1="1089.7" y1="191.86" x2="73.65" y2="191.86" style="fill:none;stroke:#ff7062;stroke-miterlimit:10;stroke-width:2px"/><line x1="1069.89" y1="175.64" x2="73.65" y2="175.64" style="fill:none;stroke:#ff7062;stroke-miterlimit:10;stroke-width:2px"/><line x1="1078.89" y1="159.41" x2="73.65" y2="159.41" style="fill:none;stroke:#ff7062;stroke-miterlimit:10;stroke-width:2px"/><line x1="1084.3" y1="240.54" x2="68.25" y2="240.54" style="fill:none;stroke:#ff7062;stroke-miterlimit:10;stroke-width:2px"/><line x1="1064.48" y1="224.31" x2="68.25" y2="224.31" style="fill:none;stroke:#ff7062;stroke-miterlimit:10;stroke-width:2px"/><line x1="1073.49" y1="208.09" x2="68.25" y2="208.09" style="fill:none;stroke:#ff7062;stroke-miterlimit:10;stroke-width:2px"/><line x1="1077.09" y1="289.21" x2="61.04" y2="289.21" style="fill:none;stroke:#ff7062;stroke-miterlimit:10;stroke-width:2px"/><line x1="1057.27" y1="272.98" x2="61.04" y2="272.98" style="fill:none;stroke:#ff7062;stroke-miterlimit:10;stroke-width:2px"/><line x1="1066.28" y1="256.76" x2="61.04" y2="256.76" style="fill:none;stroke:#ff7062;stroke-miterlimit:10;stroke-width:2px"/><line x1="1071.68" y1="337.88" x2="55.63" y2="337.88" style="fill:none;stroke:#ff7062;stroke-miterlimit:10;stroke-width:2px"/><line x1="1051.87" y1="321.66" x2="55.63" y2="321.66" style="fill:none;stroke:#ff7062;stroke-miterlimit:10;stroke-width:2px"/><line x1="1060.88" y1="305.43" x2="55.63" y2="305.43" style="fill:none;stroke:#ff7062;stroke-miterlimit:10;stroke-width:2px"/><line x1="1070.78" y1="386.55" x2="54.73" y2="386.55" style="fill:none;stroke:#ff7062;stroke-miterlimit:10;stroke-width:2px"/><line x1="1050.97" y1="370.33" x2="54.73" y2="370.33" style="fill:none;stroke:#ff7062;stroke-miterlimit:10;stroke-width:2px"/><line x1="1059.97" y1="354.11" x2="54.73" y2="354.11" style="fill:none;stroke:#ff7062;stroke-miterlimit:10;stroke-width:2px"/><line x1="1065.38" y1="435.23" x2="49.33" y2="435.23" style="fill:none;stroke:#ff7062;stroke-miterlimit:10;stroke-width:2px"/><line x1="1045.56" y1="419" x2="49.33" y2="419" style="fill:none;stroke:#ff7062;stroke-miterlimit:10;stroke-width:2px"/><line x1="1054.57" y1="402.78" x2="49.33" y2="402.78" style="fill:none;stroke:#ff7062;stroke-miterlimit:10;stroke-width:2px"/><line x1="1058.17" y1="483.9" x2="42.12" y2="483.9" style="fill:none;stroke:#ff7062;stroke-miterlimit:10;stroke-width:2px"/><line x1="1038.35" y1="467.67" x2="42.12" y2="467.68" style="fill:none;stroke:#ff7062;stroke-miterlimit:10;stroke-width:2px"/><line x1="1047.36" y1="451.45" x2="42.12" y2="451.45" style="fill:none;stroke:#ff7062;stroke-miterlimit:10;stroke-width:2px"/><line x1="1052.77" y1="532.57" x2="36.71" y2="532.57" style="fill:none;stroke:#ff7062;stroke-miterlimit:10;stroke-width:2px"/><line x1="1032.95" y1="516.35" x2="36.71" y2="516.35" style="fill:none;stroke:#ff7062;stroke-miterlimit:10;stroke-width:2px"/><line x1="1041.96" y1="500.12" x2="36.72" y2="500.12" style="fill:none;stroke:#ff7062;stroke-miterlimit:10;stroke-width:2px"/><line x1="1061.32" y1="581.24" x2="45.27" y2="581.24" style="fill:none;stroke:#ff7062;stroke-miterlimit:10;stroke-width:2px"/><line x1="1041.51" y1="565.02" x2="45.27" y2="565.02" style="fill:none;stroke:#ff7062;stroke-miterlimit:10;stroke-width:2px"/><line x1="1050.51" y1="548.8" x2="45.27" y2="548.8" style="fill:none;stroke:#ff7062;stroke-miterlimit:10;stroke-width:2px"/><line x1="1055.92" y1="629.92" x2="39.87" y2="629.92" style="fill:none;stroke:#ff7062;stroke-miterlimit:10;stroke-width:2px"/><line x1="1036.1" y1="613.69" x2="39.87" y2="613.69" style="fill:none;stroke:#ff7062;stroke-miterlimit:10;stroke-width:2px"/><line x1="1045.11" y1="597.47" x2="39.87" y2="597.47" style="fill:none;stroke:#ff7062;stroke-miterlimit:10;stroke-width:2px"/><line x1="1048.71" y1="678.59" x2="32.66" y2="678.59" style="fill:none;stroke:#ff7062;stroke-miterlimit:10;stroke-width:2px"/><line x1="1028.89" y1="662.37" x2="32.66" y2="662.37" style="fill:none;stroke:#ff7062;stroke-miterlimit:10;stroke-width:2px"/><line x1="1037.9" y1="646.14" x2="32.66" y2="646.14" style="fill:none;stroke:#ff7062;stroke-miterlimit:10;stroke-width:2px"/><line x1="1043.3" y1="727.26" x2="27.25" y2="727.26" style="fill:none;stroke:#ff7062;stroke-miterlimit:10;stroke-width:2px"/><line x1="1023.49" y1="711.04" x2="27.25" y2="711.04" style="fill:none;stroke:#ff7062;stroke-miterlimit:10;stroke-width:2px"/><line x1="1032.5" y1="694.81" x2="27.25" y2="694.81" style="fill:none;stroke:#ff7062;stroke-miterlimit:10;stroke-width:2px"/><line x1="1042.4" y1="775.94" x2="26.35" y2="775.94" style="fill:none;stroke:#ff7062;stroke-miterlimit:10;stroke-width:2px"/><line x1="1022.59" y1="759.71" x2="26.35" y2="759.71" style="fill:none;stroke:#ff7062;stroke-miterlimit:10;stroke-width:2px"/><line x1="1031.59" y1="743.49" x2="26.35" y2="743.49" style="fill:none;stroke:#ff7062;stroke-miterlimit:10;stroke-width:2px"/><line x1="1037" y1="824.61" x2="20.95" y2="824.61" style="fill:none;stroke:#ff7062;stroke-miterlimit:10;stroke-width:2px"/><line x1="1017.18" y1="808.38" x2="20.95" y2="808.38" style="fill:none;stroke:#ff7062;stroke-miterlimit:10;stroke-width:2px"/><line x1="1026.19" y1="792.16" x2="20.95" y2="792.16" style="fill:none;stroke:#ff7062;stroke-miterlimit:10;stroke-width:2px"/><line x1="1029.79" y1="873.28" x2="13.74" y2="873.28" style="fill:none;stroke:#ff7062;stroke-miterlimit:10;stroke-width:2px"/><line x1="1009.97" y1="857.06" x2="13.74" y2="857.06" style="fill:none;stroke:#ff7062;stroke-miterlimit:10;stroke-width:2px"/><line x1="1018.98" y1="840.83" x2="13.74" y2="840.83" style="fill:none;stroke:#ff7062;stroke-miterlimit:10;stroke-width:2px"/><line x1="1024.39" y1="921.95" x2="8.33" y2="921.95" style="fill:none;stroke:#ff7062;stroke-miterlimit:10;stroke-width:2px"/><line x1="1004.57" y1="905.73" x2="8.33" y2="905.73" style="fill:none;stroke:#ff7062;stroke-miterlimit:10;stroke-width:2px"/><line x1="1013.58" y1="889.51" x2="8.33" y2="889.51" style="fill:none;stroke:#ff7062;stroke-miterlimit:10;stroke-width:2px"/></g></svg>