<svg xmlns="https://www.w3.org/2000/svg" xmlns:xlink="https://www.w3.org/1999/xlink" viewBox="0 0 1689.65 1689.66"><defs><clipPath id="bbe76544-01fc-4166-b785-e7d3cc00f7fc" transform="translate(490.23 131.71)"><path d="M322.34,945.65l-65.13-141.1H189.76v141.1H9.9V402.17H272.72c147.3,0,231.81,70.56,231.81,194.6,0,79.08-30.24,138-86.06,172.11l107,176.77ZM189.76,668.1h83c38.76,0,61.25-24,61.25-65.9,0-40.32-22.49-63.57-61.25-63.57h-83Z" style="fill:none"/></clipPath></defs><title>circle-lined</title><g id="a865ec3c-3b63-4a49-8f3a-7bd299afe842" data-name="Layer 2"><g style="clip-path:url(#bbe76544-01fc-4166-b785-e7d3cc00f7fc)"><line x1="297.5" y1="12.92" x2="297.5" y2="1588.38" style="fill:none;stroke:#0d0d0d;stroke-miterlimit:10;stroke-width:2px"/><line x1="272.34" y1="43.65" x2="272.34" y2="1588.38" style="fill:none;stroke:#0d0d0d;stroke-miterlimit:10;stroke-width:2px"/><line x1="247.18" y1="29.68" x2="247.18" y2="1588.38" style="fill:none;stroke:#0d0d0d;stroke-miterlimit:10;stroke-width:2px"/><line x1="372.97" y1="21.31" x2="372.97" y2="1596.76" style="fill:none;stroke:#0d0d0d;stroke-miterlimit:10;stroke-width:2px"/><line x1="347.81" y1="52.03" x2="347.81" y2="1596.76" style="fill:none;stroke:#0d0d0d;stroke-miterlimit:10;stroke-width:2px"/><line x1="322.65" y1="38.07" x2="322.65" y2="1596.76" style="fill:none;stroke:#0d0d0d;stroke-miterlimit:10;stroke-width:2px"/><line x1="448.44" y1="32.48" x2="448.44" y2="1607.93" style="fill:none;stroke:#0d0d0d;stroke-miterlimit:10;stroke-width:2px"/><line x1="423.28" y1="63.21" x2="423.28" y2="1607.93" style="fill:none;stroke:#0d0d0d;stroke-miterlimit:10;stroke-width:2px"/><line x1="398.12" y1="49.24" x2="398.12" y2="1607.93" style="fill:none;stroke:#0d0d0d;stroke-miterlimit:10;stroke-width:2px"/><line x1="523.91" y1="40.86" x2="523.91" y2="1616.32" style="fill:none;stroke:#0d0d0d;stroke-miterlimit:10;stroke-width:2px"/><line x1="498.75" y1="71.59" x2="498.75" y2="1616.32" style="fill:none;stroke:#0d0d0d;stroke-miterlimit:10;stroke-width:2px"/><line x1="473.59" y1="57.62" x2="473.59" y2="1616.31" style="fill:none;stroke:#0d0d0d;stroke-miterlimit:10;stroke-width:2px"/><line x1="599.38" y1="42.26" x2="599.38" y2="1617.71" style="fill:none;stroke:#0d0d0d;stroke-miterlimit:10;stroke-width:2px"/><line x1="574.22" y1="72.99" x2="574.22" y2="1617.71" style="fill:none;stroke:#0d0d0d;stroke-miterlimit:10;stroke-width:2px"/><line x1="549.06" y1="59.02" x2="549.06" y2="1617.71" style="fill:none;stroke:#0d0d0d;stroke-miterlimit:10;stroke-width:2px"/><line x1="674.85" y1="50.64" x2="674.85" y2="1626.1" style="fill:none;stroke:#0d0d0d;stroke-miterlimit:10;stroke-width:2px"/><line x1="649.69" y1="81.37" x2="649.69" y2="1626.09" style="fill:none;stroke:#0d0d0d;stroke-miterlimit:10;stroke-width:2px"/><line x1="624.53" y1="67.4" x2="624.53" y2="1626.09" style="fill:none;stroke:#0d0d0d;stroke-miterlimit:10;stroke-width:2px"/><line x1="750.32" y1="61.82" x2="750.32" y2="1637.27" style="fill:none;stroke:#0d0d0d;stroke-miterlimit:10;stroke-width:2px"/><line x1="725.16" y1="92.54" x2="725.16" y2="1637.27" style="fill:none;stroke:#0d0d0d;stroke-miterlimit:10;stroke-width:2px"/><line x1="700" y1="78.58" x2="700" y2="1637.27" style="fill:none;stroke:#0d0d0d;stroke-miterlimit:10;stroke-width:2px"/><line x1="825.79" y1="70.2" x2="825.79" y2="1645.65" style="fill:none;stroke:#0d0d0d;stroke-miterlimit:10;stroke-width:2px"/><line x1="800.63" y1="100.92" x2="800.63" y2="1645.65" style="fill:none;stroke:#0d0d0d;stroke-miterlimit:10;stroke-width:2px"/><line x1="775.47" y1="86.96" x2="775.47" y2="1645.65" style="fill:none;stroke:#0d0d0d;stroke-miterlimit:10;stroke-width:2px"/><line x1="901.26" y1="56.93" x2="901.26" y2="1632.38" style="fill:none;stroke:#0d0d0d;stroke-miterlimit:10;stroke-width:2px"/><line x1="876.1" y1="87.66" x2="876.1" y2="1632.38" style="fill:none;stroke:#0d0d0d;stroke-miterlimit:10;stroke-width:2px"/><line x1="850.94" y1="73.69" x2="850.94" y2="1632.38" style="fill:none;stroke:#0d0d0d;stroke-miterlimit:10;stroke-width:2px"/><line x1="976.73" y1="65.31" x2="976.73" y2="1640.77" style="fill:none;stroke:#0d0d0d;stroke-miterlimit:10;stroke-width:2px"/><line x1="951.57" y1="96.04" x2="951.57" y2="1640.77" style="fill:none;stroke:#0d0d0d;stroke-miterlimit:10;stroke-width:2px"/><line x1="926.41" y1="82.07" x2="926.42" y2="1640.76" style="fill:none;stroke:#0d0d0d;stroke-miterlimit:10;stroke-width:2px"/><line x1="1052.2" y1="76.49" x2="1052.2" y2="1651.94" style="fill:none;stroke:#0d0d0d;stroke-miterlimit:10;stroke-width:2px"/><line x1="1027.04" y1="107.21" x2="1027.04" y2="1651.94" style="fill:none;stroke:#0d0d0d;stroke-miterlimit:10;stroke-width:2px"/><line x1="1001.89" y1="93.25" x2="1001.89" y2="1651.94" style="fill:none;stroke:#0d0d0d;stroke-miterlimit:10;stroke-width:2px"/><line x1="1127.67" y1="84.87" x2="1127.67" y2="1660.32" style="fill:none;stroke:#0d0d0d;stroke-miterlimit:10;stroke-width:2px"/><line x1="1102.51" y1="115.59" x2="1102.51" y2="1660.32" style="fill:none;stroke:#0d0d0d;stroke-miterlimit:10;stroke-width:2px"/><line x1="1077.36" y1="101.63" x2="1077.36" y2="1660.32" style="fill:none;stroke:#0d0d0d;stroke-miterlimit:10;stroke-width:2px"/><line x1="1203.14" y1="86.27" x2="1203.14" y2="1661.72" style="fill:none;stroke:#0d0d0d;stroke-miterlimit:10;stroke-width:2px"/><line x1="1177.98" y1="116.99" x2="1177.98" y2="1661.72" style="fill:none;stroke:#0d0d0d;stroke-miterlimit:10;stroke-width:2px"/><line x1="1152.83" y1="103.03" x2="1152.83" y2="1661.72" style="fill:none;stroke:#0d0d0d;stroke-miterlimit:10;stroke-width:2px"/><line x1="1278.61" y1="94.65" x2="1278.61" y2="1670.1" style="fill:none;stroke:#0d0d0d;stroke-miterlimit:10;stroke-width:2px"/><line x1="1253.45" y1="125.37" x2="1253.45" y2="1670.1" style="fill:none;stroke:#0d0d0d;stroke-miterlimit:10;stroke-width:2px"/><line x1="1228.3" y1="111.41" x2="1228.3" y2="1670.1" style="fill:none;stroke:#0d0d0d;stroke-miterlimit:10;stroke-width:2px"/><line x1="1354.08" y1="105.82" x2="1354.08" y2="1681.28" style="fill:none;stroke:#0d0d0d;stroke-miterlimit:10;stroke-width:2px"/><line x1="1328.92" y1="136.55" x2="1328.92" y2="1681.28" style="fill:none;stroke:#0d0d0d;stroke-miterlimit:10;stroke-width:2px"/><line x1="1303.77" y1="122.58" x2="1303.77" y2="1681.27" style="fill:none;stroke:#0d0d0d;stroke-miterlimit:10;stroke-width:2px"/><line x1="1429.55" y1="114.2" x2="1429.55" y2="1689.66" style="fill:none;stroke:#0d0d0d;stroke-miterlimit:10;stroke-width:2px"/><line x1="1404.39" y1="144.93" x2="1404.39" y2="1689.66" style="fill:none;stroke:#0d0d0d;stroke-miterlimit:10;stroke-width:2px"/><line x1="1379.24" y1="130.96" x2="1379.24" y2="1689.66" style="fill:none;stroke:#0d0d0d;stroke-miterlimit:10;stroke-width:2px"/><line x1="1676.73" y1="310.42" x2="101.28" y2="310.42" style="fill:none;stroke:#0d0d0d;stroke-miterlimit:10;stroke-width:2px"/><line x1="1646.01" y1="285.26" x2="101.28" y2="285.26" style="fill:none;stroke:#0d0d0d;stroke-miterlimit:10;stroke-width:2px"/><line x1="1659.97" y1="260.11" x2="101.28" y2="260.11" style="fill:none;stroke:#0d0d0d;stroke-miterlimit:10;stroke-width:2px"/><line x1="1668.35" y1="385.89" x2="92.9" y2="385.89" style="fill:none;stroke:#0d0d0d;stroke-miterlimit:10;stroke-width:2px"/><line x1="1637.62" y1="360.73" x2="92.9" y2="360.73" style="fill:none;stroke:#0d0d0d;stroke-miterlimit:10;stroke-width:2px"/><line x1="1651.59" y1="335.58" x2="92.9" y2="335.58" style="fill:none;stroke:#0d0d0d;stroke-miterlimit:10;stroke-width:2px"/><line x1="1657.18" y1="461.36" x2="81.72" y2="461.36" style="fill:none;stroke:#0d0d0d;stroke-miterlimit:10;stroke-width:2px"/><line x1="1626.45" y1="436.2" x2="81.72" y2="436.2" style="fill:none;stroke:#0d0d0d;stroke-miterlimit:10;stroke-width:2px"/><line x1="1640.42" y1="411.05" x2="81.72" y2="411.05" style="fill:none;stroke:#0d0d0d;stroke-miterlimit:10;stroke-width:2px"/><line x1="1648.79" y1="536.83" x2="73.34" y2="536.83" style="fill:none;stroke:#0d0d0d;stroke-miterlimit:10;stroke-width:2px"/><line x1="1618.07" y1="511.67" x2="73.34" y2="511.67" style="fill:none;stroke:#0d0d0d;stroke-miterlimit:10;stroke-width:2px"/><line x1="1632.04" y1="486.52" x2="73.34" y2="486.52" style="fill:none;stroke:#0d0d0d;stroke-miterlimit:10;stroke-width:2px"/><line x1="1647.4" y1="612.3" x2="71.94" y2="612.3" style="fill:none;stroke:#0d0d0d;stroke-miterlimit:10;stroke-width:2px"/><line x1="1616.67" y1="587.14" x2="71.94" y2="587.14" style="fill:none;stroke:#0d0d0d;stroke-miterlimit:10;stroke-width:2px"/><line x1="1630.64" y1="561.99" x2="71.94" y2="561.99" style="fill:none;stroke:#0d0d0d;stroke-miterlimit:10;stroke-width:2px"/><line x1="1639.02" y1="687.77" x2="63.56" y2="687.77" style="fill:none;stroke:#0d0d0d;stroke-miterlimit:10;stroke-width:2px"/><line x1="1608.29" y1="662.61" x2="63.56" y2="662.62" style="fill:none;stroke:#0d0d0d;stroke-miterlimit:10;stroke-width:2px"/><line x1="1622.26" y1="637.46" x2="63.56" y2="637.46" style="fill:none;stroke:#0d0d0d;stroke-miterlimit:10;stroke-width:2px"/><line x1="1627.84" y1="763.24" x2="52.39" y2="763.24" style="fill:none;stroke:#0d0d0d;stroke-miterlimit:10;stroke-width:2px"/><line x1="1597.11" y1="738.09" x2="52.39" y2="738.09" style="fill:none;stroke:#0d0d0d;stroke-miterlimit:10;stroke-width:2px"/><line x1="1611.08" y1="712.93" x2="52.39" y2="712.93" style="fill:none;stroke:#0d0d0d;stroke-miterlimit:10;stroke-width:2px"/><line x1="1619.46" y1="838.71" x2="44.01" y2="838.71" style="fill:none;stroke:#0d0d0d;stroke-miterlimit:10;stroke-width:2px"/><line x1="1588.73" y1="813.56" x2="44.01" y2="813.56" style="fill:none;stroke:#0d0d0d;stroke-miterlimit:10;stroke-width:2px"/><line x1="1602.7" y1="788.4" x2="44.01" y2="788.4" style="fill:none;stroke:#0d0d0d;stroke-miterlimit:10;stroke-width:2px"/><line x1="1632.73" y1="914.18" x2="57.27" y2="914.18" style="fill:none;stroke:#0d0d0d;stroke-miterlimit:10;stroke-width:2px"/><line x1="1602" y1="889.03" x2="57.27" y2="889.03" style="fill:none;stroke:#0d0d0d;stroke-miterlimit:10;stroke-width:2px"/><line x1="1615.97" y1="863.87" x2="57.27" y2="863.87" style="fill:none;stroke:#0d0d0d;stroke-miterlimit:10;stroke-width:2px"/><line x1="1624.35" y1="989.65" x2="48.89" y2="989.65" style="fill:none;stroke:#0d0d0d;stroke-miterlimit:10;stroke-width:2px"/><line x1="1593.62" y1="964.5" x2="48.89" y2="964.5" style="fill:none;stroke:#0d0d0d;stroke-miterlimit:10;stroke-width:2px"/><line x1="1607.59" y1="939.34" x2="48.89" y2="939.34" style="fill:none;stroke:#0d0d0d;stroke-miterlimit:10;stroke-width:2px"/><line x1="1613.17" y1="1065.12" x2="37.72" y2="1065.12" style="fill:none;stroke:#0d0d0d;stroke-miterlimit:10;stroke-width:2px"/><line x1="1582.44" y1="1039.97" x2="37.72" y2="1039.97" style="fill:none;stroke:#0d0d0d;stroke-miterlimit:10;stroke-width:2px"/><line x1="1596.41" y1="1014.81" x2="37.72" y2="1014.81" style="fill:none;stroke:#0d0d0d;stroke-miterlimit:10;stroke-width:2px"/><line x1="1604.79" y1="1140.59" x2="29.34" y2="1140.59" style="fill:none;stroke:#0d0d0d;stroke-miterlimit:10;stroke-width:2px"/><line x1="1574.06" y1="1115.44" x2="29.34" y2="1115.44" style="fill:none;stroke:#0d0d0d;stroke-miterlimit:10;stroke-width:2px"/><line x1="1588.03" y1="1090.28" x2="29.34" y2="1090.28" style="fill:none;stroke:#0d0d0d;stroke-miterlimit:10;stroke-width:2px"/><line x1="1603.39" y1="1216.06" x2="27.94" y2="1216.06" style="fill:none;stroke:#0d0d0d;stroke-miterlimit:10;stroke-width:2px"/><line x1="1572.66" y1="1190.91" x2="27.94" y2="1190.91" style="fill:none;stroke:#0d0d0d;stroke-miterlimit:10;stroke-width:2px"/><line x1="1586.63" y1="1165.75" x2="27.94" y2="1165.75" style="fill:none;stroke:#0d0d0d;stroke-miterlimit:10;stroke-width:2px"/><line x1="1595.01" y1="1291.53" x2="19.56" y2="1291.53" style="fill:none;stroke:#0d0d0d;stroke-miterlimit:10;stroke-width:2px"/><line x1="1564.28" y1="1266.38" x2="19.56" y2="1266.38" style="fill:none;stroke:#0d0d0d;stroke-miterlimit:10;stroke-width:2px"/><line x1="1578.25" y1="1241.22" x2="19.56" y2="1241.22" style="fill:none;stroke:#0d0d0d;stroke-miterlimit:10;stroke-width:2px"/><line x1="1583.83" y1="1367.01" x2="8.38" y2="1367.01" style="fill:none;stroke:#0d0d0d;stroke-miterlimit:10;stroke-width:2px"/><line x1="1553.11" y1="1341.85" x2="8.38" y2="1341.85" style="fill:none;stroke:#0d0d0d;stroke-miterlimit:10;stroke-width:2px"/><line x1="1567.08" y1="1316.69" x2="8.38" y2="1316.69" style="fill:none;stroke:#0d0d0d;stroke-miterlimit:10;stroke-width:2px"/><line x1="1575.45" y1="1442.48" y2="1442.48" style="fill:none;stroke:#0d0d0d;stroke-miterlimit:10;stroke-width:2px"/><line x1="1544.73" y1="1417.32" y2="1417.32" style="fill:none;stroke:#0d0d0d;stroke-miterlimit:10;stroke-width:2px"/><line x1="1558.69" y1="1392.16" y2="1392.16" style="fill:none;stroke:#0d0d0d;stroke-miterlimit:10;stroke-width:2px"/><line x1="310.42" x2="310.42" y2="1575.45" style="fill:none;stroke:#0d0d0d;stroke-miterlimit:10;stroke-width:2px"/><line x1="285.26" y1="30.73" x2="285.26" y2="1575.45" style="fill:none;stroke:#0d0d0d;stroke-miterlimit:10;stroke-width:2px"/><line x1="260.1" y1="16.76" x2="260.1" y2="1575.45" style="fill:none;stroke:#0d0d0d;stroke-miterlimit:10;stroke-width:2px"/><line x1="385.89" y1="8.38" x2="385.89" y2="1583.83" style="fill:none;stroke:#0d0d0d;stroke-miterlimit:10;stroke-width:2px"/><line x1="360.73" y1="39.11" x2="360.73" y2="1583.83" style="fill:none;stroke:#0d0d0d;stroke-miterlimit:10;stroke-width:2px"/><line x1="335.57" y1="25.14" x2="335.57" y2="1583.83" style="fill:none;stroke:#0d0d0d;stroke-miterlimit:10;stroke-width:2px"/><line x1="461.36" y1="19.56" x2="461.36" y2="1595.01" style="fill:none;stroke:#0d0d0d;stroke-miterlimit:10;stroke-width:2px"/><line x1="436.2" y1="50.28" x2="436.2" y2="1595.01" style="fill:none;stroke:#0d0d0d;stroke-miterlimit:10;stroke-width:2px"/><line x1="411.04" y1="36.32" x2="411.05" y2="1595.01" style="fill:none;stroke:#0d0d0d;stroke-miterlimit:10;stroke-width:2px"/><line x1="536.83" y1="27.94" x2="536.83" y2="1603.39" style="fill:none;stroke:#0d0d0d;stroke-miterlimit:10;stroke-width:2px"/><line x1="511.67" y1="58.66" x2="511.67" y2="1603.39" style="fill:none;stroke:#0d0d0d;stroke-miterlimit:10;stroke-width:2px"/><line x1="486.52" y1="44.7" x2="486.52" y2="1603.39" style="fill:none;stroke:#0d0d0d;stroke-miterlimit:10;stroke-width:2px"/><line x1="612.3" y1="29.34" x2="612.3" y2="1604.79" style="fill:none;stroke:#0d0d0d;stroke-miterlimit:10;stroke-width:2px"/><line x1="587.14" y1="60.06" x2="587.14" y2="1604.79" style="fill:none;stroke:#0d0d0d;stroke-miterlimit:10;stroke-width:2px"/><line x1="561.99" y1="46.09" x2="561.99" y2="1604.79" style="fill:none;stroke:#0d0d0d;stroke-miterlimit:10;stroke-width:2px"/><line x1="687.77" y1="37.72" x2="687.77" y2="1613.17" style="fill:none;stroke:#0d0d0d;stroke-miterlimit:10;stroke-width:2px"/><line x1="662.61" y1="68.44" x2="662.61" y2="1613.17" style="fill:none;stroke:#0d0d0d;stroke-miterlimit:10;stroke-width:2px"/><line x1="637.46" y1="54.48" x2="637.46" y2="1613.17" style="fill:none;stroke:#0d0d0d;stroke-miterlimit:10;stroke-width:2px"/><line x1="763.24" y1="48.89" x2="763.24" y2="1624.35" style="fill:none;stroke:#0d0d0d;stroke-miterlimit:10;stroke-width:2px"/><line x1="738.08" y1="79.62" x2="738.08" y2="1624.34" style="fill:none;stroke:#0d0d0d;stroke-miterlimit:10;stroke-width:2px"/><line x1="712.93" y1="65.65" x2="712.93" y2="1624.34" style="fill:none;stroke:#0d0d0d;stroke-miterlimit:10;stroke-width:2px"/><line x1="838.71" y1="57.27" x2="838.71" y2="1632.73" style="fill:none;stroke:#0d0d0d;stroke-miterlimit:10;stroke-width:2px"/><line x1="813.55" y1="88" x2="813.55" y2="1632.73" style="fill:none;stroke:#0d0d0d;stroke-miterlimit:10;stroke-width:2px"/><line x1="788.4" y1="74.03" x2="788.4" y2="1632.73" style="fill:none;stroke:#0d0d0d;stroke-miterlimit:10;stroke-width:2px"/><line x1="914.18" y1="44.01" x2="914.18" y2="1619.46" style="fill:none;stroke:#0d0d0d;stroke-miterlimit:10;stroke-width:2px"/><line x1="889.02" y1="74.73" x2="889.02" y2="1619.46" style="fill:none;stroke:#0d0d0d;stroke-miterlimit:10;stroke-width:2px"/><line x1="863.87" y1="60.77" x2="863.87" y2="1619.46" style="fill:none;stroke:#0d0d0d;stroke-miterlimit:10;stroke-width:2px"/><line x1="989.65" y1="52.39" x2="989.65" y2="1627.84" style="fill:none;stroke:#0d0d0d;stroke-miterlimit:10;stroke-width:2px"/><line x1="964.49" y1="83.11" x2="964.49" y2="1627.84" style="fill:none;stroke:#0d0d0d;stroke-miterlimit:10;stroke-width:2px"/><line x1="939.34" y1="69.15" x2="939.34" y2="1627.84" style="fill:none;stroke:#0d0d0d;stroke-miterlimit:10;stroke-width:2px"/><line x1="1065.12" y1="63.56" x2="1065.12" y2="1639.02" style="fill:none;stroke:#0d0d0d;stroke-miterlimit:10;stroke-width:2px"/><line x1="1039.96" y1="94.29" x2="1039.96" y2="1639.02" style="fill:none;stroke:#0d0d0d;stroke-miterlimit:10;stroke-width:2px"/><line x1="1014.81" y1="80.32" x2="1014.81" y2="1639.01" style="fill:none;stroke:#0d0d0d;stroke-miterlimit:10;stroke-width:2px"/><line x1="1140.59" y1="71.94" x2="1140.59" y2="1647.4" style="fill:none;stroke:#0d0d0d;stroke-miterlimit:10;stroke-width:2px"/><line x1="1115.43" y1="102.67" x2="1115.44" y2="1647.4" style="fill:none;stroke:#0d0d0d;stroke-miterlimit:10;stroke-width:2px"/><line x1="1090.28" y1="88.7" x2="1090.28" y2="1647.4" style="fill:none;stroke:#0d0d0d;stroke-miterlimit:10;stroke-width:2px"/><line x1="1216.06" y1="73.34" x2="1216.06" y2="1648.79" style="fill:none;stroke:#0d0d0d;stroke-miterlimit:10;stroke-width:2px"/><line x1="1190.91" y1="104.07" x2="1190.91" y2="1648.79" style="fill:none;stroke:#0d0d0d;stroke-miterlimit:10;stroke-width:2px"/><line x1="1165.75" y1="90.1" x2="1165.75" y2="1648.79" style="fill:none;stroke:#0d0d0d;stroke-miterlimit:10;stroke-width:2px"/><line x1="1291.53" y1="81.72" x2="1291.53" y2="1657.18" style="fill:none;stroke:#0d0d0d;stroke-miterlimit:10;stroke-width:2px"/><line x1="1266.38" y1="112.45" x2="1266.38" y2="1657.18" style="fill:none;stroke:#0d0d0d;stroke-miterlimit:10;stroke-width:2px"/><line x1="1241.22" y1="98.48" x2="1241.22" y2="1657.18" style="fill:none;stroke:#0d0d0d;stroke-miterlimit:10;stroke-width:2px"/><line x1="1367" y1="92.9" x2="1367" y2="1668.35" style="fill:none;stroke:#0d0d0d;stroke-miterlimit:10;stroke-width:2px"/><line x1="1341.85" y1="123.62" x2="1341.85" y2="1668.35" style="fill:none;stroke:#0d0d0d;stroke-miterlimit:10;stroke-width:2px"/><line x1="1316.69" y1="109.66" x2="1316.69" y2="1668.35" style="fill:none;stroke:#0d0d0d;stroke-miterlimit:10;stroke-width:2px"/><line x1="1442.47" y1="101.28" x2="1442.47" y2="1676.73" style="fill:none;stroke:#0d0d0d;stroke-miterlimit:10;stroke-width:2px"/><line x1="1417.32" y1="132.01" x2="1417.32" y2="1676.73" style="fill:none;stroke:#0d0d0d;stroke-miterlimit:10;stroke-width:2px"/><line x1="1392.16" y1="118.04" x2="1392.16" y2="1676.73" style="fill:none;stroke:#0d0d0d;stroke-miterlimit:10;stroke-width:2px"/><line x1="1689.65" y1="297.5" x2="114.2" y2="297.5" style="fill:none;stroke:#0d0d0d;stroke-miterlimit:10;stroke-width:2px"/><line x1="1658.93" y1="272.34" x2="114.2" y2="272.34" style="fill:none;stroke:#0d0d0d;stroke-miterlimit:10;stroke-width:2px"/><line x1="1672.9" y1="247.18" x2="114.2" y2="247.18" style="fill:none;stroke:#0d0d0d;stroke-miterlimit:10;stroke-width:2px"/><line x1="1681.27" y1="372.97" x2="105.82" y2="372.97" style="fill:none;stroke:#0d0d0d;stroke-miterlimit:10;stroke-width:2px"/><line x1="1650.55" y1="347.81" x2="105.82" y2="347.81" style="fill:none;stroke:#0d0d0d;stroke-miterlimit:10;stroke-width:2px"/><line x1="1664.51" y1="322.65" x2="105.82" y2="322.65" style="fill:none;stroke:#0d0d0d;stroke-miterlimit:10;stroke-width:2px"/><line x1="1670.1" y1="448.44" x2="94.65" y2="448.44" style="fill:none;stroke:#0d0d0d;stroke-miterlimit:10;stroke-width:2px"/><line x1="1639.37" y1="423.28" x2="94.65" y2="423.28" style="fill:none;stroke:#0d0d0d;stroke-miterlimit:10;stroke-width:2px"/><line x1="1653.34" y1="398.12" x2="94.65" y2="398.12" style="fill:none;stroke:#0d0d0d;stroke-miterlimit:10;stroke-width:2px"/><line x1="1661.72" y1="523.91" x2="86.26" y2="523.91" style="fill:none;stroke:#0d0d0d;stroke-miterlimit:10;stroke-width:2px"/><line x1="1630.99" y1="498.75" x2="86.26" y2="498.75" style="fill:none;stroke:#0d0d0d;stroke-miterlimit:10;stroke-width:2px"/><line x1="1644.96" y1="473.59" x2="86.26" y2="473.59" style="fill:none;stroke:#0d0d0d;stroke-miterlimit:10;stroke-width:2px"/><line x1="1660.32" y1="599.38" x2="84.87" y2="599.38" style="fill:none;stroke:#0d0d0d;stroke-miterlimit:10;stroke-width:2px"/><line x1="1629.59" y1="574.22" x2="84.87" y2="574.22" style="fill:none;stroke:#0d0d0d;stroke-miterlimit:10;stroke-width:2px"/><line x1="1643.56" y1="549.06" x2="84.87" y2="549.06" style="fill:none;stroke:#0d0d0d;stroke-miterlimit:10;stroke-width:2px"/><line x1="1651.94" y1="674.85" x2="76.48" y2="674.85" style="fill:none;stroke:#0d0d0d;stroke-miterlimit:10;stroke-width:2px"/><line x1="1621.21" y1="649.69" x2="76.49" y2="649.69" style="fill:none;stroke:#0d0d0d;stroke-miterlimit:10;stroke-width:2px"/><line x1="1635.18" y1="624.53" x2="76.49" y2="624.53" style="fill:none;stroke:#0d0d0d;stroke-miterlimit:10;stroke-width:2px"/><line x1="1640.76" y1="750.32" x2="65.31" y2="750.32" style="fill:none;stroke:#0d0d0d;stroke-miterlimit:10;stroke-width:2px"/><line x1="1610.04" y1="725.16" x2="65.31" y2="725.16" style="fill:none;stroke:#0d0d0d;stroke-miterlimit:10;stroke-width:2px"/><line x1="1624" y1="700" x2="65.31" y2="700" style="fill:none;stroke:#0d0d0d;stroke-miterlimit:10;stroke-width:2px"/><line x1="1632.38" y1="825.79" x2="56.93" y2="825.79" style="fill:none;stroke:#0d0d0d;stroke-miterlimit:10;stroke-width:2px"/><line x1="1601.66" y1="800.63" x2="56.93" y2="800.63" style="fill:none;stroke:#0d0d0d;stroke-miterlimit:10;stroke-width:2px"/><line x1="1615.62" y1="775.47" x2="56.93" y2="775.47" style="fill:none;stroke:#0d0d0d;stroke-miterlimit:10;stroke-width:2px"/><line x1="1645.65" y1="901.26" x2="70.2" y2="901.26" style="fill:none;stroke:#0d0d0d;stroke-miterlimit:10;stroke-width:2px"/><line x1="1614.92" y1="876.1" x2="70.2" y2="876.1" style="fill:none;stroke:#0d0d0d;stroke-miterlimit:10;stroke-width:2px"/><line x1="1628.89" y1="850.94" x2="70.2" y2="850.94" style="fill:none;stroke:#0d0d0d;stroke-miterlimit:10;stroke-width:2px"/><line x1="1637.27" y1="976.73" x2="61.81" y2="976.73" style="fill:none;stroke:#0d0d0d;stroke-miterlimit:10;stroke-width:2px"/><line x1="1606.54" y1="951.57" x2="61.81" y2="951.57" style="fill:none;stroke:#0d0d0d;stroke-miterlimit:10;stroke-width:2px"/><line x1="1620.51" y1="926.41" x2="61.82" y2="926.42" style="fill:none;stroke:#0d0d0d;stroke-miterlimit:10;stroke-width:2px"/><line x1="1626.09" y1="1052.2" x2="50.64" y2="1052.2" style="fill:none;stroke:#0d0d0d;stroke-miterlimit:10;stroke-width:2px"/><line x1="1595.37" y1="1027.04" x2="50.64" y2="1027.04" style="fill:none;stroke:#0d0d0d;stroke-miterlimit:10;stroke-width:2px"/><line x1="1609.33" y1="1001.89" x2="50.64" y2="1001.89" style="fill:none;stroke:#0d0d0d;stroke-miterlimit:10;stroke-width:2px"/><line x1="1617.71" y1="1127.67" x2="42.26" y2="1127.67" style="fill:none;stroke:#0d0d0d;stroke-miterlimit:10;stroke-width:2px"/><line x1="1586.99" y1="1102.51" x2="42.26" y2="1102.51" style="fill:none;stroke:#0d0d0d;stroke-miterlimit:10;stroke-width:2px"/><line x1="1600.95" y1="1077.36" x2="42.26" y2="1077.36" style="fill:none;stroke:#0d0d0d;stroke-miterlimit:10;stroke-width:2px"/><line x1="1616.31" y1="1203.14" x2="40.86" y2="1203.14" style="fill:none;stroke:#0d0d0d;stroke-miterlimit:10;stroke-width:2px"/><line x1="1585.59" y1="1177.98" x2="40.86" y2="1177.98" style="fill:none;stroke:#0d0d0d;stroke-miterlimit:10;stroke-width:2px"/><line x1="1599.55" y1="1152.83" x2="40.86" y2="1152.83" style="fill:none;stroke:#0d0d0d;stroke-miterlimit:10;stroke-width:2px"/><line x1="1607.93" y1="1278.61" x2="32.48" y2="1278.61" style="fill:none;stroke:#0d0d0d;stroke-miterlimit:10;stroke-width:2px"/><line x1="1577.21" y1="1253.45" x2="32.48" y2="1253.45" style="fill:none;stroke:#0d0d0d;stroke-miterlimit:10;stroke-width:2px"/><line x1="1591.17" y1="1228.3" x2="32.48" y2="1228.3" style="fill:none;stroke:#0d0d0d;stroke-miterlimit:10;stroke-width:2px"/><line x1="1596.76" y1="1354.08" x2="21.3" y2="1354.08" style="fill:none;stroke:#0d0d0d;stroke-miterlimit:10;stroke-width:2px"/><line x1="1566.03" y1="1328.92" x2="21.3" y2="1328.92" style="fill:none;stroke:#0d0d0d;stroke-miterlimit:10;stroke-width:2px"/><line x1="1580" y1="1303.77" x2="21.3" y2="1303.77" style="fill:none;stroke:#0d0d0d;stroke-miterlimit:10;stroke-width:2px"/><line x1="1588.38" y1="1429.55" x2="12.92" y2="1429.55" style="fill:none;stroke:#0d0d0d;stroke-miterlimit:10;stroke-width:2px"/><line x1="1557.65" y1="1404.39" x2="12.92" y2="1404.39" style="fill:none;stroke:#0d0d0d;stroke-miterlimit:10;stroke-width:2px"/><line x1="1571.62" y1="1379.24" x2="12.92" y2="1379.24" style="fill:none;stroke:#0d0d0d;stroke-miterlimit:10;stroke-width:2px"/></g></g></svg>