<?xml version="1.0" encoding="utf-8"?>
<!-- Generator: Adobe Illustrator 24.0.1, SVG Export Plug-In . SVG Version: 6.00 Build 0)  -->
<svg version="1.1" id="left-side" xmlns="http://www.w3.org/2000/svg" xmlns:xlink="http://www.w3.org/1999/xlink" x="0px" y="0px"
	 viewBox="0 0 535.5 963.5" style="enable-background:new 0 0 535.5 963.5;" xml:space="preserve">
<style type="text/css">
	.st0{clip-path:url(#SVGID_2_);}
	.st1{fill:none;stroke:#0F4B81;stroke-width:4;stroke-miterlimit:10;}
</style>
<g>
	<defs>
		<circle id="SVGID_1_" cx="196.1" cy="755.4" r="251.2"/>
	</defs>
	<clipPath id="SVGID_2_">
		<use xlink:href="#SVGID_1_"  style="overflow:visible;"/>
	</clipPath>
	<g class="st0">
		<g>
			<line class="st1" x1="613.4" y1="1205.8" x2="-365.3" y2="1205.8"/>
			<line class="st1" x1="613.4" y1="1191.5" x2="-365.3" y2="1191.5"/>
			<line class="st1" x1="613.4" y1="1178.2" x2="-365.3" y2="1178.2"/>
			<line class="st1" x1="613.4" y1="1164.2" x2="-365.3" y2="1164.2"/>
			<line class="st1" x1="613.4" y1="1149.8" x2="-365.3" y2="1149.8"/>
			<line class="st1" x1="613.4" y1="1135.5" x2="-365.3" y2="1135.5"/>
			<line class="st1" x1="613.4" y1="1122.2" x2="-365.3" y2="1122.2"/>
			<line class="st1" x1="613.4" y1="1108.2" x2="-365.3" y2="1108.2"/>
			<line class="st1" x1="613.4" y1="1093.8" x2="-365.3" y2="1093.8"/>
			<line class="st1" x1="613.4" y1="1079.5" x2="-365.3" y2="1079.5"/>
			<line class="st1" x1="613.4" y1="1066.2" x2="-365.3" y2="1066.2"/>
			<line class="st1" x1="613.4" y1="1052.2" x2="-365.3" y2="1052.2"/>
			<line class="st1" x1="613.4" y1="1037.8" x2="-365.3" y2="1037.8"/>
			<line class="st1" x1="613.4" y1="1023.5" x2="-365.3" y2="1023.5"/>
			<line class="st1" x1="613.4" y1="1010.2" x2="-365.3" y2="1010.2"/>
			<line class="st1" x1="613.4" y1="996.2" x2="-365.3" y2="996.2"/>
			<line class="st1" x1="613.4" y1="981.8" x2="-365.3" y2="981.8"/>
			<line class="st1" x1="613.4" y1="967.5" x2="-365.3" y2="967.5"/>
			<line class="st1" x1="613.4" y1="954.2" x2="-365.3" y2="954.2"/>
			<line class="st1" x1="613.4" y1="940.2" x2="-365.3" y2="940.2"/>
			<line class="st1" x1="613.4" y1="925.8" x2="-365.3" y2="925.8"/>
			<line class="st1" x1="613.4" y1="911.4" x2="-365.3" y2="911.4"/>
			<line class="st1" x1="613.4" y1="898.2" x2="-365.3" y2="898.2"/>
			<line class="st1" x1="613.4" y1="884.2" x2="-365.3" y2="884.2"/>
			<line class="st1" x1="613.4" y1="869.8" x2="-365.3" y2="869.8"/>
			<line class="st1" x1="613.4" y1="855.4" x2="-365.3" y2="855.4"/>
			<line class="st1" x1="613.4" y1="842.2" x2="-365.3" y2="842.2"/>
			<line class="st1" x1="613.4" y1="828.2" x2="-365.3" y2="828.2"/>
			<line class="st1" x1="613.4" y1="813.8" x2="-365.3" y2="813.8"/>
			<line class="st1" x1="613.4" y1="799.4" x2="-365.3" y2="799.4"/>
			<line class="st1" x1="613.4" y1="786.2" x2="-365.3" y2="786.2"/>
			<line class="st1" x1="613.4" y1="772.2" x2="-365.3" y2="772.2"/>
			<line class="st1" x1="613.4" y1="757.8" x2="-365.3" y2="757.8"/>
			<line class="st1" x1="613.4" y1="743.4" x2="-365.3" y2="743.4"/>
			<line class="st1" x1="613.4" y1="730.2" x2="-365.3" y2="730.2"/>
			<line class="st1" x1="613.4" y1="716.2" x2="-365.3" y2="716.2"/>
			<line class="st1" x1="613.4" y1="701.8" x2="-365.3" y2="701.8"/>
			<line class="st1" x1="613.4" y1="687.4" x2="-365.3" y2="687.4"/>
			<line class="st1" x1="613.4" y1="674.2" x2="-365.3" y2="674.2"/>
			<line class="st1" x1="613.4" y1="660.2" x2="-365.3" y2="660.2"/>
			<line class="st1" x1="613.4" y1="645.8" x2="-365.3" y2="645.8"/>
			<line class="st1" x1="613.4" y1="631.4" x2="-365.3" y2="631.4"/>
			<line class="st1" x1="613.4" y1="618.2" x2="-365.3" y2="618.2"/>
			<line class="st1" x1="613.4" y1="604.2" x2="-365.3" y2="604.2"/>
			<line class="st1" x1="613.4" y1="589.8" x2="-365.3" y2="589.8"/>
			<line class="st1" x1="613.4" y1="575.4" x2="-365.3" y2="575.4"/>
			<line class="st1" x1="613.4" y1="562.2" x2="-365.3" y2="562.2"/>
			<line class="st1" x1="613.4" y1="548.2" x2="-365.3" y2="548.2"/>
			<line class="st1" x1="613.4" y1="533.8" x2="-365.3" y2="533.8"/>
			<line class="st1" x1="613.4" y1="519.4" x2="-365.3" y2="519.4"/>
			<line class="st1" x1="613.4" y1="506.2" x2="-365.3" y2="506.2"/>
			<line class="st1" x1="613.4" y1="492.2" x2="-365.3" y2="492.2"/>
			<line class="st1" x1="613.4" y1="477.8" x2="-365.3" y2="477.8"/>
			<line class="st1" x1="613.4" y1="463.4" x2="-365.3" y2="463.4"/>
			<line class="st1" x1="613.4" y1="450.2" x2="-365.3" y2="450.2"/>
			<line class="st1" x1="613.4" y1="436.2" x2="-365.3" y2="436.2"/>
			<line class="st1" x1="613.4" y1="421.8" x2="-365.3" y2="421.8"/>
			<line class="st1" x1="613.4" y1="407.4" x2="-365.3" y2="407.4"/>
			<line class="st1" x1="613.4" y1="394.2" x2="-365.3" y2="394.2"/>
			<line class="st1" x1="613.4" y1="380.2" x2="-365.3" y2="380.2"/>
			<line class="st1" x1="613.4" y1="365.8" x2="-365.3" y2="365.8"/>
			<line class="st1" x1="613.4" y1="351.4" x2="-365.3" y2="351.4"/>
			<line class="st1" x1="613.4" y1="338.2" x2="-365.3" y2="338.2"/>
			<line class="st1" x1="613.4" y1="324.2" x2="-365.3" y2="324.2"/>
		</g>
		<g>
			<line class="st1" x1="718.7" y1="313.3" x2="718.7" y2="1061.6"/>
			<line class="st1" x1="699.9" y1="313.3" x2="699.9" y2="1061.6"/>
			<line class="st1" x1="682.5" y1="313.3" x2="682.5" y2="1061.6"/>
			<line class="st1" x1="664.2" y1="313.3" x2="664.2" y2="1061.6"/>
			<line class="st1" x1="645.4" y1="313.3" x2="645.4" y2="1061.6"/>
			<line class="st1" x1="626.6" y1="313.3" x2="626.6" y2="1061.6"/>
			<line class="st1" x1="609.3" y1="313.3" x2="609.3" y2="1061.6"/>
			<line class="st1" x1="591" y1="313.3" x2="591" y2="1061.6"/>
			<line class="st1" x1="572.2" y1="313.3" x2="572.2" y2="1061.6"/>
			<line class="st1" x1="553.4" y1="313.3" x2="553.4" y2="1061.6"/>
			<line class="st1" x1="536" y1="313.3" x2="536" y2="1061.6"/>
			<line class="st1" x1="517.7" y1="313.3" x2="517.7" y2="1061.6"/>
			<line class="st1" x1="498.9" y1="313.3" x2="498.9" y2="1061.6"/>
			<line class="st1" x1="480.1" y1="313.3" x2="480.1" y2="1061.6"/>
			<line class="st1" x1="462.8" y1="313.3" x2="462.8" y2="1061.6"/>
			<line class="st1" x1="444.5" y1="313.3" x2="444.5" y2="1061.6"/>
			<line class="st1" x1="425.7" y1="313.3" x2="425.7" y2="1061.6"/>
			<line class="st1" x1="406.9" y1="313.3" x2="406.9" y2="1061.6"/>
			<line class="st1" x1="389.5" y1="313.3" x2="389.5" y2="1061.6"/>
			<line class="st1" x1="371.2" y1="313.3" x2="371.2" y2="1061.6"/>
			<line class="st1" x1="352.4" y1="313.3" x2="352.4" y2="1061.6"/>
			<line class="st1" x1="333.7" y1="313.3" x2="333.7" y2="1061.6"/>
			<line class="st1" x1="316.3" y1="313.3" x2="316.3" y2="1061.6"/>
			<line class="st1" x1="298" y1="313.3" x2="298" y2="1061.6"/>
			<line class="st1" x1="279.2" y1="313.3" x2="279.2" y2="1061.6"/>
			<line class="st1" x1="260.4" y1="313.3" x2="260.4" y2="1061.6"/>
			<line class="st1" x1="243.1" y1="313.3" x2="243.1" y2="1061.6"/>
			<line class="st1" x1="224.7" y1="313.3" x2="224.7" y2="1061.6"/>
			<line class="st1" x1="206" y1="313.3" x2="206" y2="1061.6"/>
			<line class="st1" x1="187.2" y1="313.3" x2="187.2" y2="1061.6"/>
			<line class="st1" x1="169.8" y1="313.3" x2="169.8" y2="1061.6"/>
			<line class="st1" x1="151.5" y1="313.3" x2="151.5" y2="1061.6"/>
			<line class="st1" x1="132.7" y1="313.3" x2="132.7" y2="1061.6"/>
			<line class="st1" x1="113.9" y1="313.3" x2="113.9" y2="1061.6"/>
			<line class="st1" x1="96.6" y1="313.3" x2="96.6" y2="1061.6"/>
			<line class="st1" x1="78.3" y1="313.3" x2="78.3" y2="1061.6"/>
			<line class="st1" x1="59.5" y1="313.3" x2="59.5" y2="1061.6"/>
			<line class="st1" x1="40.7" y1="313.3" x2="40.7" y2="1061.6"/>
			<line class="st1" x1="23.3" y1="313.3" x2="23.3" y2="1061.6"/>
			<line class="st1" x1="5" y1="313.3" x2="5" y2="1061.6"/>
			<line class="st1" x1="-13.8" y1="313.3" x2="-13.8" y2="1061.6"/>
			<line class="st1" x1="-32.6" y1="313.3" x2="-32.6" y2="1061.6"/>
			<line class="st1" x1="-49.9" y1="313.3" x2="-49.9" y2="1061.6"/>
			<line class="st1" x1="-68.2" y1="313.3" x2="-68.2" y2="1061.6"/>
			<line class="st1" x1="-87" y1="313.3" x2="-87" y2="1061.6"/>
			<line class="st1" x1="-105.8" y1="313.3" x2="-105.8" y2="1061.6"/>
			<line class="st1" x1="-123.2" y1="313.3" x2="-123.2" y2="1061.6"/>
			<line class="st1" x1="-141.5" y1="313.3" x2="-141.5" y2="1061.6"/>
			<line class="st1" x1="-160.3" y1="313.3" x2="-160.3" y2="1061.6"/>
			<line class="st1" x1="-179.1" y1="313.3" x2="-179.1" y2="1061.6"/>
			<line class="st1" x1="-196.4" y1="313.3" x2="-196.4" y2="1061.6"/>
			<line class="st1" x1="-214.7" y1="313.3" x2="-214.7" y2="1061.6"/>
			<line class="st1" x1="-233.5" y1="313.3" x2="-233.5" y2="1061.6"/>
			<line class="st1" x1="-252.3" y1="313.3" x2="-252.3" y2="1061.6"/>
			<line class="st1" x1="-269.6" y1="313.3" x2="-269.6" y2="1061.6"/>
			<line class="st1" x1="-288" y1="313.3" x2="-288" y2="1061.6"/>
			<line class="st1" x1="-306.8" y1="313.3" x2="-306.8" y2="1061.6"/>
			<line class="st1" x1="-325.5" y1="313.3" x2="-325.5" y2="1061.6"/>
			<line class="st1" x1="-342.9" y1="313.3" x2="-342.9" y2="1061.6"/>
			<line class="st1" x1="-361.2" y1="313.3" x2="-361.2" y2="1061.6"/>
			<line class="st1" x1="-380" y1="313.3" x2="-380" y2="1061.6"/>
			<line class="st1" x1="-398.8" y1="313.3" x2="-398.8" y2="1061.6"/>
			<line class="st1" x1="-416.1" y1="313.3" x2="-416.1" y2="1061.6"/>
			<line class="st1" x1="-434.4" y1="313.3" x2="-434.4" y2="1061.6"/>
		</g>
	</g>
</g>
</svg>
