<?xml version="1.0" encoding="utf-8"?>
<!-- Generator: Adobe Illustrator 23.0.5, SVG Export Plug-In . SVG Version: 6.00 Build 0)  -->
<svg version="1.1" id="Capa_1" xmlns="http://www.w3.org/2000/svg" xmlns:xlink="http://www.w3.org/1999/xlink" x="0px" y="0px"
	 viewBox="0 0 438.5 438.5" style="enable-background:new 0 0 438.5 438.5;" xml:space="preserve">
<style type="text/css">
	.st0{fill:none;stroke:#FFFFFF;stroke-width:15;stroke-miterlimit:10;}
	.st1{fill:#FFFFFF;}
</style>
<path class="st0" d="M284.4,399.5H154c-63.5,0-115-51.5-115-115V153.9c0-63.5,51.5-115,115-115h130.5c63.5,0,115,51.5,115,115v130.5
	C399.5,348,348,399.5,284.4,399.5z"/>
<g>
	<path class="st1" d="M212.1,164.5v15.2h39.6v14.7h-39.1v113.9h-17.4V194.4h-23v-14.7h23v-15.9c0-23,13.7-38.1,38.9-38.1
		c9.5,0,19.3,2.7,25.7,8.1l-5.9,13c-4.9-4.2-11.7-6.4-19.1-6.4C220,140.3,212.1,148.7,212.1,164.5z"/>
</g>
</svg>
