<?xml version="1.0" encoding="utf-8"?>
<!-- Generator: Adobe Illustrator 23.0.5, SVG Export Plug-In . SVG Version: 6.00 Build 0)  -->
<svg version="1.1" id="Capa_1" xmlns="http://www.w3.org/2000/svg" xmlns:xlink="http://www.w3.org/1999/xlink" x="0px" y="0px"
	 viewBox="0 0 438.5 438.5" style="enable-background:new 0 0 438.5 438.5;" xml:space="preserve">
<style type="text/css">
	.st0{fill:none;stroke:#FFFFFF;stroke-width:15;stroke-miterlimit:10;}
</style>
<path class="st0" d="M284.5,399.5H154c-63.5,0-115-51.5-115-115V153.9c0-63.5,51.5-115,115-115h130.5c63.5,0,115,51.5,115,115v130.5
	C399.6,348,348.1,399.5,284.5,399.5z"/>
<path class="st0" d="M91.7,320.2c1,1.1,2,2.1,3.2,2.9l1.7,1.2c3.6,1.6,7.1,4.7,10.6,9.3c3.5,4.6,6.1,8.7,7.7,12.5l2.4,5.6
	c2.1,6.2,5.7,11.2,10.8,15s10.5,6.3,16.4,7.3c5.9,1.1,11.5,1.6,17,1.7c5.5,0.1,10-0.2,13.6-0.9l5.6-1c0,6.2,0,13.4,0.1,21.8
	c0,1.4,0,2.7,0,3.8h93.3v-42.2c0-15.8-4.2-27.4-12.7-34.7c9.3-1,17.6-2.4,25.1-4.4c7.4-2,15.1-5.1,23-9.5
	c7.9-4.4,14.5-9.8,19.8-16.3c5.3-6.4,9.6-15,13-25.7c3.3-10.7,5-22.9,5-36.8c0-19.7-6.4-36.5-19.3-50.4c6-14.8,5.4-31.5-2-49.9
	c-4.6-1.5-11.2-0.6-19.8,2.7c-8.6,3.3-16.1,6.8-22.5,10.8l-9.3,5.9c-15.2-4.2-30.8-6.4-47-6.4s-31.8,2.1-47,6.4
	c-2.6-1.8-6.1-4-10.4-6.6c-4.3-2.6-11.1-5.7-20.4-9.4c-9.3-3.7-16.3-4.8-21-3.3c-7.2,18.4-7.7,35-1.7,49.9
	c-12.9,13.9-19.3,30.6-19.3,50.4c0,13.9,1.7,26.1,5,36.7c3.3,10.6,7.6,19.2,12.8,25.7c5.2,6.5,11.8,12,19.7,16.4
	c7.9,4.4,15.6,7.6,23,9.5c7.4,2,15.8,3.4,25.1,4.4c-6.5,5.9-10.5,14.3-12,25.2c-3.4,1.6-7.1,2.9-11,3.7c-3.9,0.8-8.6,1.2-13.9,1.2
	c-5.4,0-10.7-1.7-16-5.3c-5.3-3.5-9.8-8.6-13.6-15.3c-3.1-5.2-7.1-9.5-11.9-12.7c-4.8-3.3-8.8-5.2-12.1-5.9l-4.9-0.7
	c-3.4,0-5.8,0.4-7.1,1.1c-1.3,0.7-1.7,1.7-1.2,2.8C90,317.8,90.7,319,91.7,320.2z"/>
</svg>
