<?xml version="1.0" encoding="utf-8"?>
<!-- Generator: Adobe Illustrator 23.0.5, SVG Export Plug-In . SVG Version: 6.00 Build 0)  -->
<svg version="1.1" id="Capa_1" xmlns="http://www.w3.org/2000/svg" xmlns:xlink="http://www.w3.org/1999/xlink" x="0px" y="0px"
	 viewBox="0 0 438.5 438.5" style="enable-background:new 0 0 438.5 438.5;" xml:space="preserve">
<style type="text/css">
	.st0{fill:none;stroke:#FFFFFF;stroke-width:15;stroke-miterlimit:10;}
	.st1{fill:#FFFFFF;}
</style>
<path class="st0" d="M284.5,399.6H154c-63.5,0-115-51.5-115-115V153.9c0-63.5,51.5-115,115-115h130.5c63.5,0,115,51.5,115,115v130.5
	C399.6,348.1,348.1,399.6,284.5,399.6z"/>
<g>
	<path class="st1" d="M134.2,120.2c0-6.2,5.3-11.5,12-11.5c6.7,0,12,5.1,12,11.3c0,6.7-5.1,12-12,12
		C139.5,132,134.2,126.7,134.2,120.2z M137.8,158.4h16.3v121h-16.3V158.4z"/>
	<path class="st1" d="M311,209.2v70.2h-16.3v-68.5c0-25.5-13.3-38.6-36.3-38.6c-26,0-42.3,16.1-42.3,43.7v63.5h-16.3v-121h15.6v22.3
		c8.7-14.7,25.1-23.2,46-23.2C290.8,157.5,311,174.5,311,209.2z"/>
</g>
</svg>
