<?xml version="1.0" encoding="utf-8"?>
<!-- Generator: Adobe Illustrator 23.0.5, SVG Export Plug-In . SVG Version: 6.00 Build 0)  -->
<svg version="1.1" xmlns="http://www.w3.org/2000/svg" xmlns:xlink="http://www.w3.org/1999/xlink" x="0px" y="0px"
	 viewBox="0 0 500 428" style="enable-background:new 0 0 500 428;" xml:space="preserve">
<style type="text/css">
	.st0{fill:#FFFFFF;}
</style>
<g id="OBJECTS">
	<g>
		<path class="st0" d="M409.1,233h-63.6c-0.5,0-1-2.9-1-6.5c0-3.6,0.4-6.5,1-6.5h63.6c0.5,0,1,2.9,1,6.5
			C410,230.1,409.6,233,409.1,233z"/>
	</g>
	<g>
		<path class="st0" d="M157.8,233h-63c-0.5,0-0.9-2.9-0.9-6.5c0-3.6,0.4-6.5,0.9-6.5h63c0.5,0,0.9,2.9,0.9,6.5
			C158.8,230.1,158.3,233,157.8,233z"/>
	</g>
	<path class="st0" d="M93.7,271.1c-1.1,0-2.3-0.3-3.3-0.9l-66.1-38.1c-2-1.2-3.3-3.3-3.3-5.7c0-2.3,1.2-4.5,3.3-5.7l66.1-38.1
		c2-1.2,4.5-1.2,6.5,0c2,1.2,3.3,3.3,3.3,5.7v76.3c0,2.3-1.2,4.5-3.3,5.7C95.9,270.8,94.8,271.1,93.7,271.1z M40.7,226.4l46.4,26.8
		v-53.6L40.7,226.4z"/>
	<g>
		<path class="st0" d="M406.8,271.1c-1.1,0-2.3-0.3-3.3-0.9c-2-1.2-3.3-3.3-3.3-5.7v-76.3c0-2.3,1.2-4.5,3.3-5.7
			c2-1.2,4.5-1.2,6.5,0l66.1,38.1c2,1.2,3.3,3.3,3.3,5.7c0,2.3-1.2,4.5-3.3,5.7l-66.1,38.1C409.1,270.8,407.9,271.1,406.8,271.1z
			 M413.3,199.6v53.6l46.4-26.8L413.3,199.6z"/>
	</g>
	<path class="st0" d="M252.3,92.7c-10,0-18.2,8.1-18.2,18.2c0,10,8.1,18.2,18.2,18.2c10,0,18.2-8.2,18.2-18.2
		C270.5,100.8,262.4,92.7,252.3,92.7z"/>
	<path class="st0" d="M252.3,31.4c-60.3,0-109.3,54.3-109.3,121.1v139.5c0,66.8,49,121.1,109.3,121.1s109.3-54.3,109.3-121.1V152.5
		C361.6,85.7,312.6,31.4,252.3,31.4z M340.8,291.9c0,55.3-39.7,100.3-88.5,100.3c-48.8,0-88.5-45-88.5-100.3V152.5
		c0-55.3,39.7-100.3,88.5-100.3s88.5,45,88.5,100.3V291.9z"/>
</g>
<g id="DESIGNED_BY_FREEPIK">
</g>
</svg>
