<svg id="f50f7fd5-de96-4bba-bd08-7e8cbf8e6791" data-name="Layer 1" xmlns="https://www.w3.org/2000/svg" viewBox="0 0 447.23 446.74"><title>portrait</title><path d="M364.06,460.51l-109.34-52H145.14l-109.34,52S-28,483.91-22.74,552H422.6C429,484.54,364.06,460.51,364.06,460.51Z" transform="translate(23.62 -105.79)" style="fill:#f5f5f3;stroke:#1a1a1a;stroke-linejoin:round;stroke-width:1.14341px"/><line x1="3.7" y1="414.81" x2="443.75" y2="414.81" style="fill:none;stroke:#1a1a1a;stroke-linejoin:round;stroke-width:1.14341px"/><line x1="17.29" y1="388.03" x2="430.82" y2="388.03" style="fill:none;stroke:#1a1a1a;stroke-linejoin:round;stroke-width:1.14341px"/><line x1="46.4" y1="361.25" x2="181.23" y2="361.25" style="fill:none;stroke:#1a1a1a;stroke-linejoin:round;stroke-width:1.14341px"/><line x1="98.63" y1="336.38" x2="148.82" y2="336.38" style="fill:none;stroke:#1a1a1a;stroke-linejoin:round;stroke-width:1.14341px"/><line x1="308.45" y1="336.38" x2="350.74" y2="336.38" style="fill:none;stroke:#1a1a1a;stroke-linejoin:round;stroke-width:1.14341px"/><line x1="273.88" y1="361.36" x2="399.33" y2="361.25" style="fill:none;stroke:#1a1a1a;stroke-linejoin:round;stroke-width:1.14341px"/><path d="M255.7,408.51h0V292H145.14V408.51l-27.35,13s2.16,51.7,83.79,52.81S291.42,426,291.42,426Z" transform="translate(23.62 -105.79)" style="fill:#f5f5f3;stroke:#1a1a1a;stroke-linejoin:round;stroke-width:1.14341px"/><path d="M146,328.37s9.26,47,50.14,52.38c47.06,6.21,59.59-51.19,59.59-51.19s-20.79,26.06-53.67,26.1C165.35,355.7,146,328.37,146,328.37Z" transform="translate(23.62 -105.79)" style="fill:#1a1a1a"/><path d="M156.77,130.56s16.27-34.77,73.8-21.92c40.61,9.07,56.32,37.55,62.05,53.53a37.54,37.54,0,0,1,1.69,19.08l-12.86,66.21L220.09,154l-57.18,4.53Z" transform="translate(23.62 -105.79)" style="fill:#1a1a1a"/><path d="M279.18,252.33s7.45-11.85,22.82-6,8.42,43.17-14.64,47.93c0,0-8.26,1.8-14.75-3.86C272.61,290.38,278.28,262.8,279.18,252.33Z" transform="translate(23.62 -105.79)" style="fill:#f5f5f3;stroke:#1a1a1a;stroke-linejoin:round;stroke-width:1.14341px"/><path d="M299,259.48s-12.88-4.29-22,14.67" transform="translate(23.62 -105.79)" style="fill:none;stroke:#1a1a1a;stroke-linecap:round;stroke-linejoin:round;stroke-width:0.610798px"/><path d="M283.19,264.87s14,7.5,4.76,18.76" transform="translate(23.62 -105.79)" style="fill:none;stroke:#1a1a1a;stroke-linecap:round;stroke-linejoin:round;stroke-width:0.610798px"/><path d="M121.8,252.33s-7.45-11.85-22.83-6-8.42,43.17,14.64,47.93c0,0,8.27,1.8,14.75-3.86C128.36,290.38,122.69,262.8,121.8,252.33Z" transform="translate(23.62 -105.79)" style="fill:#f5f5f3;stroke:#1a1a1a;stroke-linejoin:round;stroke-width:1.14341px"/><path d="M102,259.48s12.88-4.29,22,14.67" transform="translate(23.62 -105.79)" style="fill:none;stroke:#1a1a1a;stroke-linecap:round;stroke-linejoin:round;stroke-width:0.610798px"/><path d="M117.79,264.87s-14,7.5-4.76,18.76" transform="translate(23.62 -105.79)" style="fill:none;stroke:#1a1a1a;stroke-linecap:round;stroke-linejoin:round;stroke-width:0.610798px"/><path d="M280.72,216.9c0,22.51-2.21,69.6-16,97.55-13,26.25-34.48,40.37-62.65,41.21s-49.16-10-66-44.08-16-94.26-16-94.26,0-80.4,79.47-80.4C283.2,136.92,280.72,216.9,280.72,216.9Z" transform="translate(23.62 -105.79)" style="fill:#f5f5f3;stroke:#1a1a1a;stroke-linejoin:round;stroke-width:1.14341px"/><path d="M194.71,225.65v51.2a6.06,6.06,0,0,0,.43,2.26,6,6,0,0,0,7.14,3.32l6.17-1.64" transform="translate(23.62 -105.79)" style="fill:#f5f5f3;stroke:#1a1a1a;stroke-linecap:round;stroke-linejoin:round;stroke-width:0.822433px"/><circle cx="186.53" cy="140.68" r="6.14" style="fill:#1a1a1a"/><path d="M239.63,246.47a6.14,6.14,0,1,1-6.14-6.14A6.14,6.14,0,0,1,239.63,246.47Z" transform="translate(23.62 -105.79)" style="fill:#1a1a1a"/><line x1="197.65" y1="147.4" x2="182.38" y2="157.47" style="fill:none;stroke:#1a1a1a;stroke-linecap:round;stroke-linejoin:round;stroke-width:0.47457699999999997px"/><line x1="247.44" y1="147.35" x2="260.95" y2="157.53" style="fill:none;stroke:#1a1a1a;stroke-linecap:round;stroke-linejoin:round;stroke-width:0.47457699999999997px"/><path d="M173.36,293.2s7.18,5.51,26.06,5.51c17.17,0,27.9-5.51,27.9-5.51" transform="translate(23.62 -105.79)" style="fill:#f5f5f3;stroke:#1a1a1a;stroke-linecap:round;stroke-linejoin:round;stroke-width:0.822433px"/><path d="M192.7,309.5s9-.58,15.75-3.5" transform="translate(23.62 -105.79)" style="fill:none;stroke:#1a1a1a;stroke-linecap:round;stroke-linejoin:round;stroke-width:0.47457699999999997px"/><path d="M213.31,220.15,262,232.72s-2.21-13.65-22.11-18.6S213.31,220.15,213.31,220.15Z" transform="translate(23.62 -105.79)" style="fill:#1a1a1a"/><path d="M183.09,220.15l-48.64,12.57s2.21-13.65,22.11-18.6S183.09,220.15,183.09,220.15Z" transform="translate(23.62 -105.79)" style="fill:#1a1a1a"/><path d="M120,250.2l-12.51-68.5A30.35,30.35,0,0,1,110,164.81c6.07-13.19,23.58-42.4,46.82-34.25l6.14,28s-29.5,6-41.33,44.55Z" transform="translate(23.62 -105.79)" style="fill:#1a1a1a"/><path d="M287.15,204.75s-9-68.13-52.62-72.95-80.13,14.45-80.13,14.45L145.28,153s1.5,1.79,4.42,4.68C114.9,161,120,212.83,120,212.83c21.08-16.05,33.52-35.92,39.19-46.62C179.58,182.79,222.27,208.66,287.15,204.75Z" transform="translate(23.62 -105.79)" style="fill:#1a1a1a"/></svg>