    <svg id="left-side" viewBox="0 0 618.21 964.11"><rect x="509.03" y="272.92" width="12.38" height="12.38" style="fill:#0b0b0b"/><rect x="492.67" y="272.92" width="12.31" height="12.31" style="fill:#0b0b0b"/><rect x="525.47" y="272.92" width="12.31" height="12.31" style="fill:#0b0b0b"/><path d="M149.12,90.86c2-2.07,3-3,5.29-3s3.27.91,5.29,3c2.29,2.35,5.42,5.56,11.39,5.56s9.1-3.21,11.39-5.56c2-2.07,3-3,5.28-3s3.27.91,5.29,3c2.29,2.35,5.42,5.56,11.39,5.56s9.1-3.21,11.39-5.56c2-2.07,3-3,5.28-3s3.27.91,5.29,3c2.29,2.35,5.42,5.56,11.39,5.56s9.1-3.21,11.39-5.56c2-2.07,3-3,5.28-3s3.27.91,5.29,3c2.28,2.35,5.42,5.56,11.38,5.56V87.88c-2.27,0-3.26-.91-5.28-3-2.29-2.34-5.42-5.55-11.39-5.55s-9.1,3.21-11.39,5.55c-2,2.07-3,3-5.28,3s-3.27-.91-5.29-3c-2.28-2.34-5.42-5.55-11.39-5.55s-9.1,3.2-11.38,5.55c-2,2.07-3,3-5.29,3s-3.26-.91-5.29-3c-2.28-2.35-5.42-5.55-11.39-5.55s-9.1,3.2-11.39,5.55c-2,2.07-3,3-5.28,3s-3.27-.91-5.29-3c-2.29-2.35-5.42-5.55-11.39-5.55s-9.1,3.2-11.39,5.55c-2,2.07-3,3-5.29,3v8.54C143.7,96.42,146.84,93.21,149.12,90.86Z" transform="translate(-14.26 -58.72)" style="fill:#0b0b0b"/><path d="M149.12,70.24c2-2.07,3-3,5.29-3s3.27.92,5.29,3c2.29,2.34,5.42,5.55,11.39,5.55s9.1-3.21,11.39-5.55c2-2.07,3-3,5.28-3s3.27.92,5.29,3c2.29,2.34,5.42,5.55,11.39,5.55s9.1-3.21,11.39-5.55c2-2.07,3-3,5.28-3s3.27.92,5.29,3c2.29,2.34,5.42,5.55,11.39,5.55s9.1-3.21,11.39-5.55c2-2.07,3-3,5.28-3s3.27.92,5.29,3c2.28,2.34,5.42,5.55,11.38,5.55V67.25c-2.27,0-3.26-.91-5.28-3-2.29-2.34-5.42-5.55-11.39-5.55s-9.1,3.21-11.39,5.55c-2,2.07-3,3-5.28,3s-3.27-.91-5.29-3c-2.28-2.34-5.42-5.55-11.39-5.55s-9.1,3.21-11.38,5.55c-2,2.07-3,3-5.29,3s-3.26-.91-5.29-3c-2.28-2.34-5.42-5.55-11.39-5.55s-9.1,3.21-11.39,5.55c-2,2.07-3,3-5.28,3s-3.27-.91-5.29-3c-2.29-2.34-5.42-5.55-11.39-5.55s-9.1,3.21-11.39,5.55c-2,2.07-3,3-5.29,3v8.54C143.7,75.79,146.84,72.58,149.12,70.24Z" transform="translate(-14.26 -58.72)" style="fill:#0b0b0b"/><polygon points="149.31 218.83 177.54 218.83 164.61 196.43 162.24 196.43 149.31 218.83" style="fill:#121212"/><polygon points="163.42 171.99 149.31 196.43 162.24 196.43 163.42 194.38 164.61 196.43 177.54 196.43 163.42 171.99" style="fill:#121212"/><path d="M490.45,121.85l-50.22,29,50.22,29Zm-8.67,43-24.21-14,24.21-14Z" transform="translate(-14.26 -58.72)" style="fill:#0b0b0b"/><path d="M231.09,580h40a20,20,0,1,0-40,0Z" transform="translate(-14.26 -58.72)" style="fill:#121212"/><path d="M251.11,540a20,20,0,0,0-20,20h40A20,20,0,0,0,251.11,540Z" transform="translate(-14.26 -58.72)" style="fill:#121212"/><polygon points="89.21 754.17 117.44 754.17 104.51 731.77 102.14 731.77 89.21 754.17" style="fill:#0b0b0b"/><polygon points="103.32 707.33 89.21 731.77 102.14 731.77 103.32 729.72 104.51 731.77 117.44 731.77 103.32 707.33" style="fill:#0b0b0b"/><rect y="357" width="6.02" height="78.22" style="fill:#121212"/><rect x="12.04" y="357" width="6.02" height="78.22" style="fill:#121212"/><rect x="24.07" y="357" width="6.02" height="78.22" style="fill:#121212"/><rect x="36.1" y="357" width="6.02" height="78.22" style="fill:#121212"/><rect x="48.14" y="357" width="6.02" height="78.22" style="fill:#121212"/><rect x="60.17" y="357" width="6.02" height="78.22" style="fill:#121212"/><rect x="72.21" y="357" width="6.02" height="78.22" style="fill:#121212"/><path d="M568.35,611.3c-2.29-2.34-5.42-5.55-11.39-5.55s-9.1,3.21-11.39,5.55c-2,2.07-3,3-5.28,3s-3.27-.91-5.29-3c-2.28-2.34-5.42-5.55-11.39-5.55s-9.1,3.21-11.38,5.55c-2,2.07-3,3-5.29,3s-3.26-.91-5.29-3c-2.28-2.34-5.42-5.55-11.39-5.55s-9.1,3.21-11.39,5.55c-2,2.07-3,3-5.28,3s-3.27-.91-5.29-3c-2.29-2.34-5.42-5.55-11.39-5.55s-9.1,3.21-11.39,5.55c-2,2.07-3,3-5.29,3v8.54c6,0,9.11-3.21,11.39-5.56,2-2.06,3-3,5.29-3s3.27.92,5.29,3c2.29,2.35,5.42,5.56,11.39,5.56s9.1-3.21,11.39-5.56c2-2.06,3-3,5.28-3s3.27.92,5.29,3c2.29,2.35,5.42,5.56,11.39,5.56s9.1-3.21,11.39-5.56c2-2.06,3-3,5.28-3s3.27.92,5.29,3c2.29,2.35,5.42,5.56,11.39,5.56s9.1-3.21,11.39-5.56c2-2.06,3-3,5.28-3s3.27.92,5.29,3c2.28,2.35,5.42,5.56,11.38,5.56v-8.54C571.36,614.28,570.37,613.37,568.35,611.3Z" transform="translate(-14.26 -58.72)" style="fill:#121212"/><path d="M445.52,590.67c-2,2.07-3,3-5.29,3v8.53c6,0,9.11-3.21,11.39-5.55,2-2.07,3-3,5.29-3s3.27.91,5.29,3c2.29,2.34,5.42,5.55,11.39,5.55s9.1-3.21,11.39-5.55c2-2.07,3-3,5.28-3s3.27.91,5.29,3c2.29,2.34,5.42,5.55,11.39,5.55s9.1-3.21,11.39-5.55c2-2.07,3-3,5.28-3s3.27.91,5.29,3c2.29,2.34,5.42,5.55,11.39,5.55s9.1-3.21,11.39-5.55c2-2.07,3-3,5.28-3s3.27.91,5.29,3c2.28,2.34,5.42,5.55,11.38,5.55v-8.53c-2.27,0-3.26-.92-5.28-3-2.29-2.34-5.42-5.55-11.39-5.55s-9.1,3.21-11.39,5.55c-2,2.07-3,3-5.28,3s-3.27-.92-5.29-3c-2.28-2.34-5.42-5.55-11.39-5.55s-9.1,3.21-11.38,5.55c-2,2.07-3,3-5.29,3s-3.26-.92-5.29-3c-2.28-2.34-5.42-5.55-11.39-5.55s-9.1,3.21-11.39,5.55c-2,2.07-3,3-5.28,3s-3.27-.92-5.29-3c-2.29-2.34-5.42-5.55-11.39-5.55S447.81,588.33,445.52,590.67Z" transform="translate(-14.26 -58.72)" style="fill:#121212"/><path d="M611.86,881a20.62,20.62,0,1,0,20.62,20.62A20.62,20.62,0,0,0,611.86,881Zm0,30.24a9.63,9.63,0,1,1,9.63-9.62A9.64,9.64,0,0,1,611.86,911.2Z" transform="translate(-14.26 -58.72)" style="fill:#121212"/><rect x="199.27" y="935.24" width="12.38" height="12.38" style="fill:#0b0b0b"/><rect x="199.27" y="918.75" width="12.38" height="12.38" style="fill:#0b0b0b"/><rect x="199.27" y="951.73" width="12.38" height="12.38" style="fill:#0b0b0b"/><path d="M350.91,842.31,389.56,881l38.65-38.65-38.65-38.64Zm38.65,23.19-23.19-23.19,23.19-23.19,23.19,23.19Z" transform="translate(-14.26 -58.72)" style="fill:#121212"/></svg>