<svg id="e7d95db5-f2d6-4786-8a55-d41be4ae9f96" data-name="Layer 1" xmlns="http://www.w3.org/2000/svg" viewBox="0 0 571.71 859.47"><title>shapes [Recovered]</title><rect x="525.47" y="399" width="29.29" height="29.29" transform="translate(-96.94 -64.65) rotate(-14.29)"/><rect x="515.01" y="433.27" width="16.87" height="16.87" transform="translate(-104.38 -67.89) rotate(-14.29)"/><path d="M146.72,231.66l11.29-9.8a32.37,32.37,0,0,0-48.9,42.43l11.29-9.79a17.42,17.42,0,1,1,26.32-22.84Z" transform="translate(-11.57 -210.72)"/><path d="M462,805.2a17.91,17.91,0,1,0-17.9,17.9A17.91,17.91,0,0,0,462,805.2Z" transform="translate(-11.57 -210.72)"/><path d="M542.34,1067.21l40.95-33.69-48.55-17.28Zm6.13-16-3.33-22.38,21.31,7.59Z" transform="translate(-11.57 -210.72)"/><rect x="15.74" y="1045.9" width="20.13" height="20.13" transform="translate(-750.7 116.82) rotate(-45)"/><polygon points="114.38 385.79 83.52 390.44 82.36 393.27 100.99 418.3 114.38 385.79"/><polygon points="83.52 390.44 89.63 375.6 55.84 380.7 76.25 408.12 82.36 393.27 80.59 390.89 83.52 390.44"/><polygon points="80.59 390.89 82.36 393.27 83.52 390.44 80.59 390.89"/></svg>